<svg width="342" height="213" viewBox="0 0 342 213" fill="none" xmlns="http://www.w3.org/2000/svg">
<path d="M2.67138 190.603L1.76044 1.57645L29.1802 21.975L29.2713 210.865L2.67138 190.603Z" fill="#F96398"/>
<path d="M340.454 21.975L312.579 1.57645H1.76044L29.1802 21.975H340.454Z" fill="#F96398"/>
<path d="M340.454 210.865V21.975H29.1802L29.2713 210.865H340.454Z" fill="#F96398"/>
<path d="M340.454 21.975V210.865H29.2713M340.454 21.975L312.579 1.57645H1.76044M340.454 21.975H29.1802M1.76044 1.57645L2.67138 190.603L29.2713 210.865M1.76044 1.57645L29.1802 21.975M29.2713 210.865L29.1802 21.975" stroke="#9E0238" stroke-width="3" stroke-linejoin="bevel"/>
<rect x="30.4098" y="24.7617" width="308.135" height="184.851" fill="#F28DB1"/>
<path d="M2.6664 190.599L1.75994 1.57254L29.0449 21.9711L29.1356 210.861L2.6664 190.599Z" fill="#CB3E6F" stroke="#9E0238" stroke-width="3" stroke-linejoin="bevel"/>
</svg>
