<svg width="647" height="215" viewBox="0 0 647 215" fill="none" xmlns="http://www.w3.org/2000/svg">
<path d="M4.72642 191.768L3.01446 3.0063L54.9071 23.3762L55.0675 212.002L4.72642 191.768Z" fill="#5EBAFE"/>
<path d="M644.016 23.3762L591.261 3.0063H3.01446L54.9071 23.3762H644.016Z" fill="#5EBAFE"/>
<path d="M644.004 212.002L644.016 23.3762H54.9071L55.0675 212.002H644.004Z" fill="#5EBAFE"/>
<path d="M644.016 23.3762L644.004 212.002H55.0675M644.016 23.3762L591.261 3.0063H3.01446M644.016 23.3762H54.9071M3.01446 3.0063L4.72642 191.768L55.0675 212.002M3.01446 3.0063L54.9071 23.3762M55.0675 212.002L54.9071 23.3762" stroke="#1B3862" stroke-width="4.49742" stroke-linejoin="bevel"/>
<rect width="583.168" height="184.592" transform="matrix(1 0 -6.38605e-05 1 57.2078 25.6484)" fill="#B4DFFF"/>
<path d="M4.71684 191.762L3.01336 3.00044L54.6508 23.3704L54.8104 211.996L4.71684 191.762Z" fill="#1082D7" stroke="#1B3862" stroke-width="4.49742" stroke-linejoin="bevel"/>
<path d="M251.683 137H243.103L268.666 91.1H269.146L283.423 137H273.343L271.004 128.36H256.364L251.683 137ZM260.264 121.04H269.024L266.085 110.3L260.264 121.04ZM295.744 89.66H304.144L298.381 137H289.981L295.744 89.66ZM316.57 138.26C314.21 138.26 312.31 137.54 310.87 136.1C309.47 134.62 308.87 132.72 309.07 130.4L311.472 110.78H319.872L317.831 127.28C317.79 128.44 317.97 129.38 318.37 130.1C318.81 130.78 319.65 131.12 320.89 131.12C322.77 131.12 324.37 130.22 325.69 128.42C327.011 126.58 327.831 124.26 328.151 121.46L329.472 110.78H337.872L334.63 137H327.01L326.95 132.98C325.83 134.58 324.39 135.86 322.63 136.82C320.87 137.78 318.85 138.26 316.57 138.26ZM355.331 110.78L355.45 114.92C356.65 113.2 358.091 111.86 359.771 110.9C361.491 109.94 363.431 109.46 365.591 109.46C367.711 109.46 369.411 109.88 370.691 110.72C372.011 111.52 372.77 112.82 372.97 114.62C374.25 113.14 375.711 111.92 377.351 110.96C379.031 109.96 380.731 109.46 382.451 109.46C385.051 109.46 387.031 110.2 388.391 111.68C389.75 113.12 390.31 115 390.07 117.32L387.669 137H379.329L381.31 120.8C381.39 119.64 381.31 118.7 381.07 117.98C380.87 117.22 380.19 116.8 379.03 116.72C377.67 116.72 376.47 117.2 375.43 118.16C374.39 119.08 373.55 120.28 372.91 121.76C372.27 123.2 371.85 124.7 371.65 126.26L370.329 137H361.929L363.91 120.8C363.99 119.64 363.89 118.7 363.61 117.98C363.33 117.22 362.61 116.8 361.45 116.72C360.13 116.72 358.95 117.2 357.91 118.16C356.91 119.08 356.09 120.26 355.45 121.7C354.85 123.14 354.45 124.62 354.25 126.14L352.929 137H344.529L347.711 110.78H355.331ZM408.386 110.78L408.506 114.68C409.626 113.12 411.106 111.88 412.946 110.96C414.786 110 416.866 109.52 419.186 109.52C421.666 109.52 423.626 110.26 425.066 111.74C426.546 113.18 427.186 115.06 426.986 117.38L424.584 137H416.184L418.225 120.5C418.306 119.34 418.086 118.42 417.566 117.74C417.086 117.02 416.166 116.66 414.806 116.66C412.846 116.66 411.186 117.58 409.826 119.42C408.465 121.22 407.625 123.52 407.305 126.32L405.984 137H397.584L400.766 110.78H408.386ZM437.65 110.78H446.05L442.808 137H434.408L437.65 110.78ZM438.19 101.54C438.19 100.26 438.63 99.18 439.51 98.3C440.391 97.42 441.551 96.98 442.991 96.98C443.991 96.98 444.991 97.28 445.991 97.88C446.99 98.44 447.49 99.44 447.49 100.88C447.49 102.12 447.05 103.2 446.17 104.12C445.29 105 444.13 105.44 442.69 105.44C441.69 105.44 440.69 105.16 439.69 104.6C438.69 104 438.19 102.98 438.19 101.54Z" fill="#1B3862"/>
</svg>
