<svg width="506" height="316" viewBox="0 0 506 316" fill="none" xmlns="http://www.w3.org/2000/svg">
<path d="M4.34528 33.013L3.00049 313L43.4792 282.786L43.6137 3L4.34528 33.013Z" fill="#FEC83D"/>
<path d="M503 282.786L461.849 313H3.00049L43.4792 282.786H503Z" fill="#FEC83D"/>
<path d="M503 3V282.786H43.4792L43.6137 3L503 3Z" fill="#FEC83D"/>
<path d="M503 282.786V3L43.6137 3M503 282.786L461.849 313H3.00048M503 282.786H43.4792M3.00048 313L4.34527 33.013L43.6137 3M3.00048 313L43.4792 282.786M43.6137 3L43.4792 282.786" stroke="#B38100" stroke-width="4.1453" stroke-linejoin="bevel"/>
<rect x="47.606" y="5.75195" width="452.282" height="274.231" fill="#FFEE72"/>
<rect x="47.606" y="5.75195" width="452.282" height="274.231" stroke="#D89C01"/>
<path d="M502.999 282.732L461.848 312.999H2.99994L43.4786 282.732H502.999Z" fill="#E9A800" stroke="#B38100" stroke-width="4.1453" stroke-linejoin="bevel"/>
<path d="M130.963 157.633C134.923 154.033 138.243 150.973 140.923 148.453C143.603 145.893 145.763 143.733 147.403 141.973C149.083 140.213 150.343 138.713 151.183 137.473C152.063 136.233 152.663 135.153 152.983 134.233C153.303 133.273 153.463 132.333 153.463 131.413C153.463 129.533 152.923 128.133 151.843 127.213C150.803 126.253 149.403 125.773 147.643 125.773C145.763 125.773 144.283 126.313 143.203 127.393C142.123 128.433 141.583 129.713 141.583 131.233C141.583 132.273 141.723 133.213 142.003 134.053C142.323 134.853 142.743 135.593 143.263 136.273L137.323 141.133C136.683 140.453 136.023 139.553 135.343 138.433C134.703 137.313 134.163 136.053 133.723 134.653C133.283 133.253 133.063 131.853 133.063 130.453C133.063 128.973 133.363 127.473 133.963 125.953C134.603 124.433 135.563 123.033 136.843 121.753C138.123 120.433 139.743 119.373 141.703 118.573C143.703 117.773 146.043 117.373 148.723 117.373C153.443 117.373 156.943 118.493 159.223 120.733C161.503 122.973 162.643 125.833 162.643 129.313C162.643 131.553 162.283 133.653 161.563 135.613C160.843 137.533 159.643 139.573 157.963 141.733C156.323 143.893 154.063 146.393 151.183 149.233H160.723L159.703 157.633H130.963ZM184.359 157.573C182.439 157.573 180.559 157.293 178.719 156.733C176.919 156.173 175.299 155.273 173.859 154.033C172.419 152.753 171.259 151.073 170.379 148.993C169.539 146.913 169.119 144.353 169.119 141.313C169.119 140.673 169.179 139.673 169.299 138.313C169.419 136.913 169.659 135.313 170.019 133.513C170.419 131.713 171.039 129.893 171.879 128.053C172.719 126.173 173.819 124.433 175.179 122.833C176.579 121.233 178.339 119.953 180.459 118.993C182.579 117.993 185.139 117.493 188.139 117.493C189.979 117.493 191.839 117.833 193.719 118.513C195.599 119.193 197.299 120.253 198.819 121.693C200.339 123.133 201.479 124.993 202.239 127.273C203.039 129.553 203.279 132.293 202.959 135.493C202.719 139.533 201.879 143.233 200.439 146.593C199.039 149.953 196.999 152.633 194.319 154.633C191.679 156.593 188.359 157.573 184.359 157.573ZM185.439 149.293C186.999 149.293 188.299 148.813 189.339 147.853C190.419 146.893 191.279 145.673 191.919 144.193C192.559 142.673 193.019 141.053 193.299 139.333C193.619 137.613 193.779 135.993 193.779 134.473C193.779 132.033 193.439 130.193 192.759 128.953C192.079 127.713 191.199 126.873 190.119 126.433C189.039 125.993 187.919 125.773 186.759 125.773C185.199 125.773 183.879 126.253 182.799 127.213C181.759 128.173 180.899 129.413 180.219 130.933C179.579 132.413 179.099 134.013 178.779 135.733C178.499 137.453 178.359 139.073 178.359 140.593C178.359 142.993 178.699 144.833 179.379 146.113C180.099 147.353 180.999 148.193 182.079 148.633C183.159 149.073 184.279 149.293 185.439 149.293ZM213.953 117.853H225.893L220.973 157.633H212.213L216.053 126.253H212.873L213.953 117.853ZM231.896 145.213C231.896 143.133 232.296 141.333 233.096 139.813C233.896 138.253 234.936 136.933 236.216 135.853C237.496 134.733 238.836 133.833 240.236 133.153C239.596 132.313 239.036 131.473 238.556 130.633C238.076 129.793 237.836 128.733 237.836 127.453C237.836 126.453 238.036 125.373 238.436 124.213C238.836 123.053 239.476 121.953 240.356 120.913C241.276 119.873 242.456 119.033 243.896 118.393C245.376 117.713 247.176 117.373 249.296 117.373C251.416 117.373 253.336 117.773 255.056 118.573C256.776 119.333 258.156 120.353 259.196 121.633C260.236 122.913 260.756 124.353 260.756 125.953C260.756 127.913 260.376 129.473 259.616 130.633C258.856 131.793 257.796 132.953 256.436 134.113C257.236 134.713 258.056 135.473 258.896 136.393C259.776 137.273 260.516 138.353 261.116 139.633C261.716 140.873 262.016 142.333 262.016 144.013C262.016 144.853 261.856 145.873 261.536 147.073C261.216 148.233 260.676 149.453 259.916 150.733C259.196 152.013 258.216 153.213 256.976 154.333C255.776 155.453 254.296 156.373 252.536 157.093C250.776 157.773 248.716 158.113 246.356 158.113C243.436 158.113 240.896 157.513 238.736 156.313C236.576 155.073 234.896 153.473 233.696 151.513C232.496 149.553 231.896 147.453 231.896 145.213ZM246.236 127.873C246.236 128.633 246.536 129.293 247.136 129.853C247.736 130.413 248.376 130.693 249.056 130.693C249.976 130.693 250.736 130.393 251.336 129.793C251.936 129.193 252.236 128.473 252.236 127.633C252.236 126.753 251.956 126.053 251.396 125.533C250.836 124.973 250.196 124.693 249.476 124.693C248.396 124.693 247.576 125.013 247.016 125.653C246.496 126.253 246.236 126.993 246.236 127.873ZM240.836 144.793C240.836 146.433 241.296 147.853 242.216 149.053C243.176 150.213 244.596 150.793 246.476 150.793C248.556 150.793 250.216 150.133 251.456 148.813C252.736 147.453 253.376 145.833 253.376 143.953C253.376 142.313 252.836 140.913 251.756 139.753C250.676 138.553 249.296 137.953 247.616 137.953C246.016 137.953 244.716 138.333 243.716 139.093C242.716 139.813 241.976 140.713 241.496 141.793C241.056 142.833 240.836 143.833 240.836 144.793ZM270.73 140.233H282.01L281.11 147.553H269.83L270.73 140.233ZM286.67 157.633C290.63 154.033 293.95 150.973 296.63 148.453C299.31 145.893 301.47 143.733 303.11 141.973C304.79 140.213 306.05 138.713 306.89 137.473C307.77 136.233 308.37 135.153 308.69 134.233C309.01 133.273 309.17 132.333 309.17 131.413C309.17 129.533 308.63 128.133 307.55 127.213C306.51 126.253 305.11 125.773 303.35 125.773C301.47 125.773 299.99 126.313 298.91 127.393C297.83 128.433 297.29 129.713 297.29 131.233C297.29 132.273 297.43 133.213 297.71 134.053C298.03 134.853 298.45 135.593 298.97 136.273L293.03 141.133C292.39 140.453 291.73 139.553 291.05 138.433C290.41 137.313 289.87 136.053 289.43 134.653C288.99 133.253 288.77 131.853 288.77 130.453C288.77 128.973 289.07 127.473 289.67 125.953C290.31 124.433 291.27 123.033 292.55 121.753C293.83 120.433 295.45 119.373 297.41 118.573C299.41 117.773 301.75 117.373 304.43 117.373C309.15 117.373 312.65 118.493 314.93 120.733C317.21 122.973 318.35 125.833 318.35 129.313C318.35 131.553 317.99 133.653 317.27 135.613C316.55 137.533 315.35 139.573 313.67 141.733C312.03 143.893 309.77 146.393 306.89 149.233H316.43L315.41 157.633H286.67ZM340.066 157.573C338.146 157.573 336.266 157.293 334.426 156.733C332.626 156.173 331.006 155.273 329.566 154.033C328.126 152.753 326.966 151.073 326.086 148.993C325.246 146.913 324.826 144.353 324.826 141.313C324.826 140.673 324.886 139.673 325.006 138.313C325.126 136.913 325.366 135.313 325.726 133.513C326.126 131.713 326.746 129.893 327.586 128.053C328.426 126.173 329.526 124.433 330.886 122.833C332.286 121.233 334.046 119.953 336.166 118.993C338.286 117.993 340.846 117.493 343.846 117.493C345.686 117.493 347.546 117.833 349.426 118.513C351.306 119.193 353.006 120.253 354.526 121.693C356.046 123.133 357.186 124.993 357.946 127.273C358.746 129.553 358.986 132.293 358.666 135.493C358.426 139.533 357.586 143.233 356.146 146.593C354.746 149.953 352.706 152.633 350.026 154.633C347.386 156.593 344.066 157.573 340.066 157.573ZM341.146 149.293C342.706 149.293 344.006 148.813 345.046 147.853C346.126 146.893 346.986 145.673 347.626 144.193C348.266 142.673 348.726 141.053 349.006 139.333C349.326 137.613 349.486 135.993 349.486 134.473C349.486 132.033 349.146 130.193 348.466 128.953C347.786 127.713 346.906 126.873 345.826 126.433C344.746 125.993 343.626 125.773 342.466 125.773C340.906 125.773 339.586 126.253 338.506 127.213C337.466 128.173 336.606 129.413 335.926 130.933C335.286 132.413 334.806 134.013 334.486 135.733C334.206 137.453 334.066 139.073 334.066 140.593C334.066 142.993 334.406 144.833 335.086 146.113C335.806 147.353 336.706 148.193 337.786 148.633C338.866 149.073 339.986 149.293 341.146 149.293ZM369.66 117.853H381.6L376.68 157.633H367.92L371.76 126.253H368.58L369.66 117.853ZM400.443 145.033C399.203 145.033 397.923 144.793 396.603 144.313C395.283 143.793 394.043 143.053 392.883 142.093C391.763 141.093 390.843 139.853 390.123 138.373C389.403 136.853 389.043 135.113 389.043 133.153C389.043 131.713 389.323 130.153 389.883 128.473C390.483 126.793 391.403 125.193 392.643 123.673C393.883 122.153 395.483 120.913 397.443 119.953C399.403 118.993 401.763 118.513 404.523 118.513C407.363 118.513 409.863 119.113 412.023 120.313C414.223 121.513 415.943 123.133 417.183 125.173C418.463 127.213 419.103 129.493 419.103 132.013C419.103 135.173 418.403 138.193 417.003 141.073C415.643 143.913 413.303 146.713 409.983 149.473C406.703 152.233 402.183 155.053 396.423 157.933L391.383 151.273C394.183 150.393 396.743 149.353 399.063 148.153C401.383 146.913 403.343 145.613 404.943 144.253C403.623 144.773 402.123 145.033 400.443 145.033ZM403.923 137.893C405.803 137.893 407.263 137.453 408.303 136.573C409.343 135.653 409.963 134.213 410.163 132.253C410.283 131.253 410.103 130.313 409.623 129.433C409.183 128.513 408.523 127.773 407.643 127.213C406.763 126.613 405.703 126.313 404.463 126.313C402.823 126.313 401.543 126.693 400.623 127.453C399.703 128.173 399.063 129.053 398.703 130.093C398.343 131.093 398.163 132.013 398.163 132.853C398.163 134.493 398.703 135.753 399.783 136.633C400.903 137.473 402.283 137.893 403.923 137.893Z" fill="#D59900"/>
</svg>
