<svg width="506" height="316" viewBox="0 0 506 316" fill="none" xmlns="http://www.w3.org/2000/svg">
<path d="M4.34561 282.987L3.00082 3.0047L43.4795 33.2187L43.614 313L4.34561 282.987Z" fill="#F96398"/>
<path d="M503 33.2187L461.849 3.0047H3.00082L43.4795 33.2187H503Z" fill="#F96398"/>
<path d="M503 313V33.2187H43.4795L43.614 313H503Z" fill="#F96398"/>
<path d="M503 33.2187V313H43.614M503 33.2187L461.849 3.0047H3.00083M503 33.2187H43.4795M3.00083 3.0047L4.34561 282.987L43.614 313M3.00083 3.0047L43.4795 33.2187M43.614 313L43.4795 33.2187" stroke="#9E0238" stroke-width="4.49742" stroke-linejoin="bevel"/>
<rect x="45.3134" y="37.4961" width="454.886" height="273.798" fill="#F28DB1"/>
<path d="M4.33816 282.984L2.99999 3.00079L43.2796 33.2148L43.4135 312.996L4.33816 282.984Z" fill="#CB3E6F" stroke="#9E0238" stroke-width="4.49742" stroke-linejoin="bevel"/>
<path d="M120.957 189.477C124.917 185.877 128.237 182.817 130.917 180.297C133.597 177.737 135.757 175.577 137.397 173.817C139.077 172.057 140.337 170.557 141.177 169.317C142.057 168.077 142.657 166.997 142.977 166.077C143.297 165.117 143.457 164.177 143.457 163.257C143.457 161.377 142.917 159.977 141.837 159.057C140.797 158.097 139.397 157.617 137.637 157.617C135.757 157.617 134.277 158.157 133.197 159.237C132.117 160.277 131.577 161.557 131.577 163.077C131.577 164.117 131.717 165.057 131.997 165.897C132.317 166.697 132.737 167.437 133.257 168.117L127.317 172.977C126.677 172.297 126.017 171.397 125.337 170.277C124.697 169.157 124.157 167.897 123.717 166.497C123.277 165.097 123.057 163.697 123.057 162.297C123.057 160.817 123.357 159.317 123.957 157.797C124.597 156.277 125.557 154.877 126.837 153.597C128.117 152.277 129.737 151.217 131.697 150.417C133.697 149.617 136.037 149.217 138.717 149.217C143.437 149.217 146.937 150.337 149.217 152.577C151.497 154.817 152.637 157.677 152.637 161.157C152.637 163.397 152.277 165.497 151.557 167.457C150.837 169.377 149.637 171.417 147.957 173.577C146.317 175.737 144.057 178.237 141.177 181.077H150.717L149.697 189.477H120.957ZM174.354 189.417C172.434 189.417 170.554 189.137 168.714 188.577C166.914 188.017 165.294 187.117 163.854 185.877C162.414 184.597 161.254 182.917 160.374 180.837C159.534 178.757 159.114 176.197 159.114 173.157C159.114 172.517 159.174 171.517 159.294 170.157C159.414 168.757 159.654 167.157 160.014 165.357C160.414 163.557 161.034 161.737 161.874 159.897C162.714 158.017 163.814 156.277 165.174 154.677C166.574 153.077 168.334 151.797 170.454 150.837C172.574 149.837 175.134 149.337 178.134 149.337C179.974 149.337 181.834 149.677 183.714 150.357C185.594 151.037 187.294 152.097 188.814 153.537C190.334 154.977 191.474 156.837 192.234 159.117C193.034 161.397 193.274 164.137 192.954 167.337C192.714 171.377 191.874 175.077 190.434 178.437C189.034 181.797 186.994 184.477 184.314 186.477C181.674 188.437 178.354 189.417 174.354 189.417ZM175.434 181.137C176.994 181.137 178.294 180.657 179.334 179.697C180.414 178.737 181.274 177.517 181.914 176.037C182.554 174.517 183.014 172.897 183.294 171.177C183.614 169.457 183.774 167.837 183.774 166.317C183.774 163.877 183.434 162.037 182.754 160.797C182.074 159.557 181.194 158.717 180.114 158.277C179.034 157.837 177.914 157.617 176.754 157.617C175.194 157.617 173.874 158.097 172.794 159.057C171.754 160.017 170.894 161.257 170.214 162.777C169.574 164.257 169.094 165.857 168.774 167.577C168.494 169.297 168.354 170.917 168.354 172.437C168.354 174.837 168.694 176.677 169.374 177.957C170.094 179.197 170.994 180.037 172.074 180.477C173.154 180.917 174.274 181.137 175.434 181.137ZM203.947 149.697H215.887L210.967 189.477H202.207L206.047 158.097H202.867L203.947 149.697ZM234.73 176.877C233.49 176.877 232.21 176.637 230.89 176.157C229.57 175.637 228.33 174.897 227.17 173.937C226.05 172.937 225.13 171.697 224.41 170.217C223.69 168.697 223.33 166.957 223.33 164.997C223.33 163.557 223.61 161.997 224.17 160.317C224.77 158.637 225.69 157.037 226.93 155.517C228.17 153.997 229.77 152.757 231.73 151.797C233.69 150.837 236.05 150.357 238.81 150.357C241.65 150.357 244.15 150.957 246.31 152.157C248.51 153.357 250.23 154.977 251.47 157.017C252.75 159.057 253.39 161.337 253.39 163.857C253.39 167.017 252.69 170.037 251.29 172.917C249.93 175.757 247.59 178.557 244.27 181.317C240.99 184.077 236.47 186.897 230.71 189.777L225.67 183.117C228.47 182.237 231.03 181.197 233.35 179.997C235.67 178.757 237.63 177.457 239.23 176.097C237.91 176.617 236.41 176.877 234.73 176.877ZM238.21 169.737C240.09 169.737 241.55 169.297 242.59 168.417C243.63 167.497 244.25 166.057 244.45 164.097C244.57 163.097 244.39 162.157 243.91 161.277C243.47 160.357 242.81 159.617 241.93 159.057C241.05 158.457 239.99 158.157 238.75 158.157C237.11 158.157 235.83 158.537 234.91 159.297C233.99 160.017 233.35 160.897 232.99 161.937C232.63 162.937 232.45 163.857 232.45 164.697C232.45 166.337 232.99 167.597 234.07 168.477C235.19 169.317 236.57 169.737 238.21 169.737ZM260.725 172.077H272.005L271.105 179.397H259.825L260.725 172.077ZM276.665 189.477C280.625 185.877 283.945 182.817 286.625 180.297C289.305 177.737 291.465 175.577 293.105 173.817C294.785 172.057 296.045 170.557 296.885 169.317C297.765 168.077 298.365 166.997 298.685 166.077C299.005 165.117 299.165 164.177 299.165 163.257C299.165 161.377 298.625 159.977 297.545 159.057C296.505 158.097 295.105 157.617 293.345 157.617C291.465 157.617 289.985 158.157 288.905 159.237C287.825 160.277 287.285 161.557 287.285 163.077C287.285 164.117 287.425 165.057 287.705 165.897C288.025 166.697 288.445 167.437 288.965 168.117L283.025 172.977C282.385 172.297 281.725 171.397 281.045 170.277C280.405 169.157 279.865 167.897 279.425 166.497C278.985 165.097 278.765 163.697 278.765 162.297C278.765 160.817 279.065 159.317 279.665 157.797C280.305 156.277 281.265 154.877 282.545 153.597C283.825 152.277 285.445 151.217 287.405 150.417C289.405 149.617 291.745 149.217 294.425 149.217C299.145 149.217 302.645 150.337 304.925 152.577C307.205 154.817 308.345 157.677 308.345 161.157C308.345 163.397 307.985 165.497 307.265 167.457C306.545 169.377 305.345 171.417 303.665 173.577C302.025 175.737 299.765 178.237 296.885 181.077H306.425L305.405 189.477H276.665ZM330.061 189.417C328.141 189.417 326.261 189.137 324.421 188.577C322.621 188.017 321.001 187.117 319.561 185.877C318.121 184.597 316.961 182.917 316.081 180.837C315.241 178.757 314.821 176.197 314.821 173.157C314.821 172.517 314.881 171.517 315.001 170.157C315.121 168.757 315.361 167.157 315.721 165.357C316.121 163.557 316.741 161.737 317.581 159.897C318.421 158.017 319.521 156.277 320.881 154.677C322.281 153.077 324.041 151.797 326.161 150.837C328.281 149.837 330.841 149.337 333.841 149.337C335.681 149.337 337.541 149.677 339.421 150.357C341.301 151.037 343.001 152.097 344.521 153.537C346.041 154.977 347.181 156.837 347.941 159.117C348.741 161.397 348.981 164.137 348.661 167.337C348.421 171.377 347.581 175.077 346.141 178.437C344.741 181.797 342.701 184.477 340.021 186.477C337.381 188.437 334.061 189.417 330.061 189.417ZM331.141 181.137C332.701 181.137 334.001 180.657 335.041 179.697C336.121 178.737 336.981 177.517 337.621 176.037C338.261 174.517 338.721 172.897 339.001 171.177C339.321 169.457 339.481 167.837 339.481 166.317C339.481 163.877 339.141 162.037 338.461 160.797C337.781 159.557 336.901 158.717 335.821 158.277C334.741 157.837 333.621 157.617 332.461 157.617C330.901 157.617 329.581 158.097 328.501 159.057C327.461 160.017 326.601 161.257 325.921 162.777C325.281 164.257 324.801 165.857 324.481 167.577C324.201 169.297 324.061 170.917 324.061 172.437C324.061 174.837 324.401 176.677 325.081 177.957C325.801 179.197 326.701 180.037 327.781 180.477C328.861 180.917 329.981 181.137 331.141 181.137ZM353.654 189.477C357.614 185.877 360.934 182.817 363.614 180.297C366.294 177.737 368.454 175.577 370.094 173.817C371.774 172.057 373.034 170.557 373.874 169.317C374.754 168.077 375.354 166.997 375.674 166.077C375.994 165.117 376.154 164.177 376.154 163.257C376.154 161.377 375.614 159.977 374.534 159.057C373.494 158.097 372.094 157.617 370.334 157.617C368.454 157.617 366.974 158.157 365.894 159.237C364.814 160.277 364.274 161.557 364.274 163.077C364.274 164.117 364.414 165.057 364.694 165.897C365.014 166.697 365.434 167.437 365.954 168.117L360.014 172.977C359.374 172.297 358.714 171.397 358.034 170.277C357.394 169.157 356.854 167.897 356.414 166.497C355.974 165.097 355.754 163.697 355.754 162.297C355.754 160.817 356.054 159.317 356.654 157.797C357.294 156.277 358.254 154.877 359.534 153.597C360.814 152.277 362.434 151.217 364.394 150.417C366.394 149.617 368.734 149.217 371.414 149.217C376.134 149.217 379.634 150.337 381.914 152.577C384.194 154.817 385.334 157.677 385.334 161.157C385.334 163.397 384.974 165.497 384.254 167.457C383.534 169.377 382.334 171.417 380.654 173.577C379.014 175.737 376.754 178.237 373.874 181.077H383.414L382.394 189.477H353.654ZM407.051 189.417C405.131 189.417 403.251 189.137 401.411 188.577C399.611 188.017 397.991 187.117 396.551 185.877C395.111 184.597 393.951 182.917 393.071 180.837C392.231 178.757 391.811 176.197 391.811 173.157C391.811 172.517 391.871 171.517 391.991 170.157C392.111 168.757 392.351 167.157 392.711 165.357C393.111 163.557 393.731 161.737 394.571 159.897C395.411 158.017 396.511 156.277 397.871 154.677C399.271 153.077 401.031 151.797 403.151 150.837C405.271 149.837 407.831 149.337 410.831 149.337C412.671 149.337 414.531 149.677 416.411 150.357C418.291 151.037 419.991 152.097 421.511 153.537C423.031 154.977 424.171 156.837 424.931 159.117C425.731 161.397 425.971 164.137 425.651 167.337C425.411 171.377 424.571 175.077 423.131 178.437C421.731 181.797 419.691 184.477 417.011 186.477C414.371 188.437 411.051 189.417 407.051 189.417ZM408.131 181.137C409.691 181.137 410.991 180.657 412.031 179.697C413.111 178.737 413.971 177.517 414.611 176.037C415.251 174.517 415.711 172.897 415.991 171.177C416.311 169.457 416.471 167.837 416.471 166.317C416.471 163.877 416.131 162.037 415.451 160.797C414.771 159.557 413.891 158.717 412.811 158.277C411.731 157.837 410.611 157.617 409.451 157.617C407.891 157.617 406.571 158.097 405.491 159.057C404.451 160.017 403.591 161.257 402.911 162.777C402.271 164.257 401.791 165.857 401.471 167.577C401.191 169.297 401.051 170.917 401.051 172.437C401.051 174.837 401.391 176.677 402.071 177.957C402.791 179.197 403.691 180.037 404.771 180.477C405.851 180.917 406.971 181.137 408.131 181.137Z" fill="#9F254F"/>
</svg>
