<svg width="655" height="237" viewBox="0 0 655 237" fill="none" xmlns="http://www.w3.org/2000/svg">
<path d="M12.7053 216.589L2.76138 28.0833L55.492 46.1703L63.8799 234.608L12.7053 216.589Z" fill="#F96398"/>
<path d="M644.027 20.4743L590.435 2.42494L2.76138 28.0833L55.492 46.1703L644.027 20.4743Z" fill="#F96398"/>
<path d="M652.243 208.92L644.027 20.4743L55.492 46.1703L63.8799 234.608L652.243 208.92Z" fill="#F96398"/>
<path d="M644.027 20.4743L652.243 208.92L63.88 234.608M644.027 20.4743L590.435 2.42494L2.76141 28.0833M644.027 20.4743L55.4921 46.1703M2.76141 28.0833L12.7053 216.589L63.88 234.608M2.76141 28.0833L55.4921 46.1703M63.88 234.608L55.4921 46.1703" stroke="#9E0238" stroke-width="4.49742" stroke-linejoin="bevel"/>
<rect width="583.155" height="184.591" transform="matrix(0.999048 -0.0436194 0.0435556 0.999051 57.941 48.8555)" fill="#F28DB1"/>
<path d="M12.6956 216.585L2.76017 28.079L55.2359 46.1771L63.623 234.615L12.6956 216.585Z" fill="#CB3E6F" stroke="#9E0238" stroke-width="4.49742" stroke-linejoin="bevel"/>
<path d="M181.284 152.829C180.818 153.169 179.978 153.647 178.764 154.26C177.588 154.832 176.149 155.355 174.448 155.83C172.789 156.343 170.96 156.643 168.962 156.73C166.684 156.829 164.292 156.594 161.784 156.022C159.317 155.45 156.99 154.43 154.804 152.964C152.618 151.498 150.808 149.475 149.374 146.895C147.941 144.315 147.138 141.067 146.967 137.151C146.829 133.994 147.136 130.938 147.888 127.982C148.638 124.986 149.882 122.29 151.619 119.891C153.394 117.452 155.691 115.49 158.509 114.005C161.325 112.481 164.711 111.633 168.667 111.46C171.984 111.315 174.884 111.709 177.367 112.641C179.848 113.534 181.832 114.488 183.318 115.505L179.23 123.671C178.316 122.91 177.059 122.104 175.461 121.253C173.862 120.402 172 119.942 169.875 119.875C166.989 119.801 164.476 120.471 162.336 121.886C160.234 123.259 158.616 125.171 157.482 127.623C156.387 130.073 155.91 132.897 156.05 136.094C156.158 138.571 156.733 140.748 157.776 142.625C158.859 144.499 160.343 145.936 162.228 146.934C164.154 147.931 166.395 148.374 168.953 148.262C170.671 148.187 172.142 147.943 173.365 147.529C174.586 147.076 175.607 146.611 176.427 146.134C177.245 145.618 177.868 145.211 178.295 144.912L181.284 152.829ZM198.007 155.942C195.649 156.045 193.72 155.409 192.218 154.033C190.755 152.616 190.073 150.743 190.171 148.417L191.713 128.711L200.105 128.345L198.787 144.918C198.798 146.078 199.018 147.01 199.449 147.712C199.919 148.372 200.773 148.675 202.012 148.621C203.89 148.539 205.449 147.57 206.689 145.714C207.928 143.818 208.646 141.465 208.843 138.653L209.696 127.926L218.088 127.559L215.995 153.896L208.382 154.228L208.147 150.215C207.098 151.862 205.715 153.204 203.999 154.239C202.282 155.275 200.285 155.843 198.007 155.942ZM235.471 126.8L235.485 132.625C236.376 131.025 237.458 129.677 238.731 128.58C240.043 127.442 241.367 126.583 242.703 126.004C244.077 125.384 245.244 125.053 246.203 125.011L245.131 133.465C243.202 133.309 241.498 133.704 240.017 134.65C238.537 135.595 237.369 136.807 236.513 138.286C235.656 139.765 235.161 141.268 235.028 142.795L234.217 153.1L225.885 153.464L227.918 127.13L235.471 126.8ZM261.49 125.664L261.504 131.489C262.395 129.889 263.477 128.541 264.75 127.444C266.062 126.306 267.386 125.447 268.722 124.868C270.096 124.248 271.263 123.917 272.222 123.875L271.15 132.329C269.221 132.173 267.517 132.568 266.036 133.514C264.556 134.459 263.388 135.671 262.532 137.15C261.675 138.629 261.18 140.132 261.047 141.659L260.236 151.964L251.904 152.328L253.937 125.994L261.49 125.664ZM291.278 144.183C292.077 144.148 292.83 143.975 293.537 143.664C294.284 143.351 295.029 142.978 295.77 142.545L298.99 148.891C297.7 149.588 296.323 150.148 294.86 150.573C293.437 150.995 292.046 151.236 290.687 151.295C286.371 151.484 282.847 150.537 280.113 148.454C277.418 146.329 275.97 142.969 275.769 138.374C275.701 136.815 275.911 135.185 276.397 133.482C276.923 131.777 277.754 130.179 278.89 128.688C280.064 127.156 281.61 125.887 283.528 124.882C285.486 123.876 287.864 123.312 290.661 123.19C292.18 123.123 293.687 123.258 295.183 123.593C296.717 123.886 298.126 124.505 299.408 125.45C300.729 126.354 301.867 127.665 302.823 129.385C303.819 131.103 304.558 133.353 305.04 136.135L285.65 141.846C286.373 142.815 287.262 143.457 288.317 143.772C289.372 144.086 290.359 144.223 291.278 144.183ZM284.12 137.048L284.127 137.228L295.92 133.59C295.543 132.285 294.86 131.314 293.871 130.677C292.92 129.998 291.846 129.684 290.647 129.737C289.008 129.808 287.705 130.205 286.735 130.928C285.766 131.651 285.065 132.563 284.632 133.663C284.24 134.761 284.069 135.889 284.12 137.048ZM320.846 123.073L321.136 126.964C322.187 125.357 323.612 124.053 325.41 123.054C327.206 122.014 329.263 121.444 331.581 121.343C334.059 121.235 336.049 121.889 337.552 123.304C339.094 124.678 339.815 126.529 339.716 128.855L338.175 148.561L329.783 148.928L331.101 132.354C331.13 131.192 330.87 130.283 330.321 129.626C329.81 128.927 328.875 128.608 327.517 128.667C325.558 128.753 323.94 129.744 322.662 131.642C321.382 133.499 320.643 135.834 320.445 138.645L319.592 149.373L311.2 149.739L313.233 123.405L320.846 123.073ZM353.176 110.13L361.568 109.764L360.687 121.213L367.041 120.936L366.547 127.504L360.193 127.781L358.659 147.667L350.267 148.033L351.801 128.148L347.725 128.325L348.219 121.758L352.295 121.58L353.176 110.13ZM409.564 101.242C413.72 101.061 417.031 101.697 419.496 103.151C421.96 104.565 423.27 107.05 423.425 110.607C423.492 112.125 423.339 113.673 422.967 115.251C422.596 116.829 421.899 118.281 420.875 119.606C419.89 120.891 418.512 121.872 416.74 122.55C417.914 122.859 419.017 123.351 420.047 124.027C421.118 124.701 421.999 125.623 422.691 126.794C423.382 127.965 423.767 129.43 423.843 131.188C423.95 133.626 423.562 135.745 422.68 137.545C421.835 139.303 420.638 140.757 419.086 141.906C417.575 143.053 415.832 143.93 413.856 144.536C411.919 145.101 409.911 145.429 407.833 145.52L393.147 146.161L396.616 101.808L409.564 101.242ZM408.853 119.351C410.731 119.269 412.123 118.607 413.03 117.366C413.977 116.124 414.419 114.783 414.356 113.345C414.295 111.946 413.79 110.927 412.841 110.288C411.891 109.609 410.636 109.303 409.078 109.371L405.002 109.549L404.177 119.555L408.853 119.351ZM407.78 137.415C409.858 137.324 411.594 136.748 412.989 135.686C414.424 134.622 415.099 133.111 415.013 131.153C414.961 129.954 414.581 129.05 413.874 128.44C413.207 127.829 412.348 127.426 411.299 127.231C410.248 126.997 409.143 126.905 407.984 126.956L403.608 127.147L402.804 137.632L407.78 137.415ZM445.431 144.599C443.872 144.667 442.243 144.498 440.544 144.092C438.843 143.646 437.23 142.935 435.706 141.961C434.222 140.985 432.985 139.697 431.994 138.099C431.044 136.499 430.519 134.56 430.419 132.282C430.349 130.684 430.536 128.994 430.978 127.213C431.461 125.43 432.269 123.753 433.401 122.182C434.532 120.572 436.076 119.243 438.032 118.197C439.988 117.15 442.405 116.564 445.282 116.439C447.64 116.336 449.92 116.737 452.121 117.642C454.361 118.505 456.222 119.865 457.704 121.722C459.227 123.577 460.05 125.924 460.174 128.761C460.217 129.76 460.129 130.945 459.909 132.316C459.686 133.647 459.265 135.007 458.645 136.395C458.025 137.783 457.161 139.082 456.053 140.292C454.943 141.461 453.504 142.445 451.737 143.243C450.011 144.039 447.908 144.491 445.431 144.599ZM445.369 137.695C447.088 137.62 448.407 137.122 449.328 136.201C450.249 135.28 450.882 134.191 451.227 132.935C451.573 131.679 451.723 130.531 451.678 129.492C451.617 128.094 451.328 126.985 450.812 126.167C450.334 125.307 449.746 124.672 449.047 124.262C448.348 123.852 447.656 123.582 446.97 123.452C446.283 123.322 445.72 123.266 445.281 123.285C443.642 123.357 442.343 123.854 441.382 124.777C440.42 125.66 439.746 126.73 439.36 127.988C438.975 129.246 438.806 130.415 438.853 131.494C438.931 133.292 439.35 134.635 440.11 135.523C440.909 136.409 441.796 137.01 442.771 137.328C443.784 137.604 444.65 137.727 445.369 137.695ZM477.21 143.091C475.493 143.206 473.794 142.8 472.112 141.873C470.43 140.945 469.007 139.546 467.844 137.675C466.722 135.802 466.101 133.507 465.982 130.79C465.897 128.831 466.175 126.937 466.815 125.108C467.454 123.238 468.402 121.555 469.658 120.059C470.912 118.523 472.42 117.296 474.182 116.378C475.941 115.42 477.9 114.895 480.058 114.8C481.817 114.724 483.244 114.861 484.34 115.214C485.477 115.565 486.378 116.026 487.043 116.597C487.749 117.167 488.336 117.782 488.806 118.442L489.587 115.706L497.379 115.365L495.346 141.699L486.954 142.065L487.173 138.813C486.71 139.233 486.034 139.783 485.143 140.463C484.29 141.101 483.194 141.689 481.856 142.228C480.559 142.765 479.01 143.053 477.21 143.091ZM481.652 136.171C482.851 136.119 483.976 135.749 485.027 135.063C486.076 134.336 486.972 133.296 487.713 131.943L488.213 125.495C487.877 124.228 487.133 123.24 485.981 122.529C484.869 121.817 483.514 121.496 481.915 121.566C480.117 121.644 478.676 122.108 477.592 122.956C476.508 123.804 475.731 124.819 475.262 126C474.793 127.182 474.582 128.312 474.63 129.391C474.726 131.589 475.421 133.3 476.716 134.525C478.008 135.71 479.654 136.258 481.652 136.171ZM514.833 114.603L514.847 120.428C515.738 118.828 516.82 117.479 518.093 116.383C519.405 115.244 520.729 114.386 522.065 113.807C523.439 113.187 524.606 112.855 525.565 112.813L524.493 121.268C522.564 121.112 520.86 121.507 519.379 122.452C517.899 123.398 516.731 124.61 515.875 126.089C515.018 127.568 514.523 129.071 514.39 130.598L513.579 140.903L505.247 141.267L507.28 114.933L514.833 114.603ZM542.534 140.359C540.057 140.468 537.814 139.985 535.805 138.912C533.796 137.838 532.19 136.367 530.988 134.498C529.823 132.587 529.191 130.492 529.092 128.214C529.012 126.376 529.252 124.544 529.813 122.718C530.412 120.85 531.338 119.128 532.59 117.552C533.882 115.974 535.488 114.682 537.406 113.678C539.324 112.673 541.561 112.115 544.119 112.003C545.837 111.928 547.428 112.139 548.891 112.636C550.352 113.092 551.58 113.7 552.574 114.457L554.345 91.738L562.677 91.3742L558.927 138.923L550.535 139.289L550.775 136.516C549.499 137.573 548.217 138.47 546.928 139.207C545.637 139.904 544.173 140.288 542.534 140.359ZM544.863 133.171C547.541 133.054 549.721 131.638 551.404 128.922L551.903 122.474C551.528 121.209 550.744 120.222 549.552 119.514C548.36 118.805 546.925 118.487 545.246 118.56C542.888 118.663 541.001 119.446 539.583 120.91C538.204 122.331 537.566 124.221 537.669 126.579C537.759 128.657 538.452 130.308 539.747 131.533C541.08 132.716 542.785 133.262 544.863 133.171Z" fill="#680024"/>
</svg>
