<svg width="500" height="500" viewBox="0 0 500 500" fill="none" xmlns="http://www.w3.org/2000/svg">
<rect width="500" height="500" fill="#1B3862"/>
<path d="M287.25 27.3203H451.75V70.6552H335.25V109.044H437.25V152.379H335.25V230.099H287.25V27.3203Z" fill="white"/>
<path d="M337.282 271.785H379.218L468.5 474.564H421.153L400.862 430.084H312.933L293.994 474.564H248L337.282 271.785ZM384.629 390.836L357.574 325.423L330.518 390.836H384.629Z" fill="white"/>
<path fill-rule="evenodd" clip-rule="evenodd" d="M132.058 27.3203H49.5V230.099H132.058C197.824 230.099 244 185.037 244 128.047C244 71.057 199.223 27.3203 132.058 27.3203ZM95.6763 191.658H133.086C170.32 191.205 196.424 166.157 196.424 130.698C196.424 94.9133 171.237 69.7316 132.058 69.7316H95.6763V191.658Z" fill="white"/>
<path d="M146.75 255.062L176.33 337.977H272.052L194.611 389.221L224.191 472.136L146.75 420.892L69.3093 472.136L98.889 389.221L21.4483 337.977H117.17L146.75 255.062Z" fill="white"/>
</svg>
