<svg width="3000" height="3500" viewBox="0 0 3000 3500" fill="none" xmlns="http://www.w3.org/2000/svg">
<g clip-path="url(#clip0)">
<rect width="3000" height="3500" fill="white"/>
<g filter="url(#filter0_d)">
<mask id="path-1-outside-1" maskUnits="userSpaceOnUse" x="1630" y="2743" width="1281" height="295" fill="black">
<rect fill="white" x="1630" y="2743" width="1281" height="295"/>
<path d="M1638 2773.34V3025.61H1689.53V2925.06H1698.54L1767.73 3025.61H1832.6C1815.3 3002.18 1777.83 2950.65 1755.48 2919.3C1783.59 2909.93 1810.26 2888.3 1810.26 2849.02C1810.26 2794.24 1758.73 2773.34 1718 2773.34H1638ZM1689.53 2816.95H1716.56C1739.63 2816.95 1755.12 2830.28 1755.12 2850.1C1755.12 2872.09 1735.66 2881.46 1709.71 2881.46H1689.53V2816.95ZM1999.32 2943.44C2000.77 2935.87 2001.85 2926.86 2001.85 2919.3C2001.85 2868.84 1962.93 2831.72 1910.31 2831.72C1855.89 2831.72 1814.09 2875.69 1814.09 2932.99C1814.09 2989.93 1852.65 3029.93 1909.95 3029.93C1950.67 3029.93 1974.82 3014.79 1996.44 2983.44L1962.93 2960.74C1950.67 2978.76 1938.06 2988.85 1913.55 2988.85C1886.53 2988.85 1869.59 2969.39 1865.98 2943.44H1999.32ZM1868.51 2908.48C1873.91 2887.22 1887.25 2871.73 1911.75 2871.73C1932.65 2871.73 1948.51 2885.78 1949.59 2908.48H1868.51ZM2135.15 2761.81C2120.37 2754.96 2104.15 2751 2087.94 2751C2061.99 2751 2045.05 2757.49 2034.6 2770.46C2024.87 2782.35 2020.91 2799.29 2020.91 2820.91V2836.05H2000.37V2878.57H2020.91V3025.61H2072.08V2878.57H2119.29V2836.05H2072.08V2823.8C2072.08 2814.43 2073.16 2806.14 2077.13 2800.73C2080.01 2797.13 2084.69 2794.97 2092.98 2794.97C2103.07 2794.97 2111 2796.77 2119.29 2801.09L2135.15 2761.81ZM2165.56 2836.05H2121.23V3025.61H2172.41V2897.31C2179.98 2884.7 2193.31 2876.41 2208.08 2876.41C2214.57 2876.41 2220.7 2877.85 2226.1 2880.73L2238.36 2836.05C2231.51 2833.53 2223.22 2831.72 2213.85 2831.72C2195.11 2831.72 2180.34 2843.62 2169.52 2861.27L2165.56 2836.05ZM2391.88 3025.61V2911.73C2391.88 2862.36 2366.3 2831.72 2313.68 2831.72C2285.57 2831.72 2256.38 2839.29 2232.24 2851.18L2245.93 2887.94C2262.51 2879.29 2281.61 2871.37 2303.23 2871.37C2330.98 2871.37 2340.71 2885.78 2340.71 2909.56V2912.45C2328.82 2909.93 2316.93 2908.48 2306.48 2908.48C2267.19 2908.48 2223.95 2923.26 2223.95 2969.75C2223.95 3008.67 2256.74 3029.93 2292.06 3029.93C2312.24 3029.93 2331.34 3024.52 2343.59 3009.39L2347.56 3025.61H2391.88ZM2340.71 2978.04C2329.9 2987.77 2317.65 2994.25 2302.87 2994.25C2287.74 2994.25 2274.04 2985.6 2274.04 2969.03C2274.04 2946.68 2296.02 2939.84 2314.76 2939.84C2322.69 2939.84 2330.98 2940.92 2340.71 2943.08V2978.04ZM2702.6 3025.61V2927.22C2702.6 2899.83 2700.44 2875.33 2685.66 2856.23C2673.77 2841.09 2656.11 2831.72 2635.93 2831.72C2615.39 2831.72 2590.52 2838.21 2572.86 2863.44C2563.13 2844.34 2540.79 2831.72 2519.17 2831.72C2500.43 2831.72 2479.53 2840.01 2464.39 2859.11L2460.79 2836.05H2416.46V3025.61H2467.63V2894.43C2477 2883.62 2491.42 2875.69 2504.03 2875.69C2514.84 2875.69 2523.49 2879.65 2528.18 2888.66C2533.94 2899.47 2533.94 2915.69 2533.94 2929.75V3025.61H2585.12V2927.22C2585.12 2916.77 2584.4 2906.68 2583.31 2897.31C2592.68 2883.62 2607.1 2875.69 2620.43 2875.69C2631.96 2875.69 2640.97 2879.65 2645.66 2889.02C2651.06 2899.83 2651.42 2915.69 2651.42 2929.75V3025.61H2702.6ZM2899.63 2943.44C2901.07 2935.87 2902.15 2926.86 2902.15 2919.3C2902.15 2868.84 2863.23 2831.72 2810.61 2831.72C2756.2 2831.72 2714.39 2875.69 2714.39 2932.99C2714.39 2989.93 2752.95 3029.93 2810.25 3029.93C2850.98 3029.93 2875.12 3014.79 2896.74 2983.44L2863.23 2960.74C2850.98 2978.76 2838.36 2988.85 2813.86 2988.85C2786.83 2988.85 2769.89 2969.39 2766.29 2943.44H2899.63ZM2768.81 2908.48C2774.22 2887.22 2787.55 2871.73 2812.06 2871.73C2832.96 2871.73 2848.81 2885.78 2849.9 2908.48H2768.81Z"/>
</mask>
<path d="M1638 2773.34V3025.61H1689.53V2925.06H1698.54L1767.73 3025.61H1832.6C1815.3 3002.18 1777.83 2950.65 1755.48 2919.3C1783.59 2909.93 1810.26 2888.3 1810.26 2849.02C1810.26 2794.24 1758.73 2773.34 1718 2773.34H1638ZM1689.53 2816.95H1716.56C1739.63 2816.95 1755.12 2830.28 1755.12 2850.1C1755.12 2872.09 1735.66 2881.46 1709.71 2881.46H1689.53V2816.95ZM1999.32 2943.44C2000.77 2935.87 2001.85 2926.86 2001.85 2919.3C2001.85 2868.84 1962.93 2831.72 1910.31 2831.72C1855.89 2831.72 1814.09 2875.69 1814.09 2932.99C1814.09 2989.93 1852.65 3029.93 1909.95 3029.93C1950.67 3029.93 1974.82 3014.79 1996.44 2983.44L1962.93 2960.74C1950.67 2978.76 1938.06 2988.85 1913.55 2988.85C1886.53 2988.85 1869.59 2969.39 1865.98 2943.44H1999.32ZM1868.51 2908.48C1873.91 2887.22 1887.25 2871.73 1911.75 2871.73C1932.65 2871.73 1948.51 2885.78 1949.59 2908.48H1868.51ZM2135.15 2761.81C2120.37 2754.96 2104.15 2751 2087.94 2751C2061.99 2751 2045.05 2757.49 2034.6 2770.46C2024.87 2782.35 2020.91 2799.29 2020.91 2820.91V2836.05H2000.37V2878.57H2020.91V3025.61H2072.08V2878.57H2119.29V2836.05H2072.08V2823.8C2072.08 2814.43 2073.16 2806.14 2077.13 2800.73C2080.01 2797.13 2084.69 2794.97 2092.98 2794.97C2103.07 2794.97 2111 2796.77 2119.29 2801.09L2135.15 2761.81ZM2165.56 2836.05H2121.23V3025.61H2172.41V2897.31C2179.98 2884.7 2193.31 2876.41 2208.08 2876.41C2214.57 2876.41 2220.7 2877.85 2226.1 2880.73L2238.36 2836.05C2231.51 2833.53 2223.22 2831.72 2213.85 2831.72C2195.11 2831.72 2180.34 2843.62 2169.52 2861.27L2165.56 2836.05ZM2391.88 3025.61V2911.73C2391.88 2862.36 2366.3 2831.72 2313.68 2831.72C2285.57 2831.72 2256.38 2839.29 2232.24 2851.18L2245.93 2887.94C2262.51 2879.29 2281.61 2871.37 2303.23 2871.37C2330.98 2871.37 2340.71 2885.78 2340.71 2909.56V2912.45C2328.82 2909.93 2316.93 2908.48 2306.48 2908.48C2267.19 2908.48 2223.95 2923.26 2223.95 2969.75C2223.95 3008.67 2256.74 3029.93 2292.06 3029.93C2312.24 3029.93 2331.34 3024.52 2343.59 3009.39L2347.56 3025.61H2391.88ZM2340.71 2978.04C2329.9 2987.77 2317.65 2994.25 2302.87 2994.25C2287.74 2994.25 2274.04 2985.6 2274.04 2969.03C2274.04 2946.68 2296.02 2939.84 2314.76 2939.84C2322.69 2939.84 2330.98 2940.92 2340.71 2943.08V2978.04ZM2702.6 3025.61V2927.22C2702.6 2899.83 2700.44 2875.33 2685.66 2856.23C2673.77 2841.09 2656.11 2831.72 2635.93 2831.72C2615.39 2831.72 2590.52 2838.21 2572.86 2863.44C2563.13 2844.34 2540.79 2831.72 2519.17 2831.72C2500.43 2831.72 2479.53 2840.01 2464.39 2859.11L2460.79 2836.05H2416.46V3025.61H2467.63V2894.43C2477 2883.62 2491.42 2875.69 2504.03 2875.69C2514.84 2875.69 2523.49 2879.65 2528.18 2888.66C2533.94 2899.47 2533.94 2915.69 2533.94 2929.75V3025.61H2585.12V2927.22C2585.12 2916.77 2584.4 2906.68 2583.31 2897.31C2592.68 2883.62 2607.1 2875.69 2620.43 2875.69C2631.96 2875.69 2640.97 2879.65 2645.66 2889.02C2651.06 2899.83 2651.42 2915.69 2651.42 2929.75V3025.61H2702.6ZM2899.63 2943.44C2901.07 2935.87 2902.15 2926.86 2902.15 2919.3C2902.15 2868.84 2863.23 2831.72 2810.61 2831.72C2756.2 2831.72 2714.39 2875.69 2714.39 2932.99C2714.39 2989.93 2752.95 3029.93 2810.25 3029.93C2850.98 3029.93 2875.12 3014.79 2896.74 2983.44L2863.23 2960.74C2850.98 2978.76 2838.36 2988.85 2813.86 2988.85C2786.83 2988.85 2769.89 2969.39 2766.29 2943.44H2899.63ZM2768.81 2908.48C2774.22 2887.22 2787.55 2871.73 2812.06 2871.73C2832.96 2871.73 2848.81 2885.78 2849.9 2908.48H2768.81Z" stroke="#E3F3FF" stroke-width="16" mask="url(#path-1-outside-1)"/>
</g>
<g filter="url(#filter1_d)">
<path d="M371.911 207V202H366.911H-3.64756H-8.64756V207V300.169C-8.64756 333.685 -5.47896 370.495 6.55684 399.49L6.5617 399.502L6.56663 399.514C24.1873 441.363 60.2666 468.744 106.461 468.744C144.152 468.744 175.781 447.372 191.242 413.789C206.893 439.866 232.992 453.393 262.096 453.393C297.051 453.393 327.785 437.786 347.281 407.711C366.065 378.976 371.911 340.225 371.911 304.404V207ZM-8.64756 775.113V780.113H-3.64756H274.801H279.801V775.113V699.943V694.943H274.801H91.4712C70.9194 681.955 59.5832 659.673 59.5832 639.595C59.5832 624.323 64.9199 612.754 76.4059 607.011C83.5786 603.424 92.6966 601.394 102.831 600.297C112.927 599.204 123.675 599.069 133.989 599.069H274.801H279.801V594.069V518.898V513.898H274.801H130.283C90.5707 513.898 52.9881 516.987 23.4672 539.824L23.4523 539.835L23.4374 539.847C0.0888224 558.192 -15 586.069 -15 617.89C-15 646.811 -3.76215 678.039 22.3601 700.969L-4.40269 705.058L-8.64756 705.707V710.001V775.113ZM-8.64756 915.483V920.483H-3.64756H274.801H279.801V915.483V840.313V835.313H274.801H-3.64756H-8.64756V840.313V915.483ZM308.445 915.483V920.483H313.445H377.499H382.499V915.483V840.313V835.313H377.499H313.445H308.445V840.313V915.483ZM393.38 1060.91H398.38V1055.91V980.741V975.741H393.38H-3.64756H-8.64756V980.741V1055.91V1060.91H-3.64756H393.38ZM-8.64756 1389.03V1394.03H-3.64756H393.38H398.38V1389.03V1313.86V1308.86H393.38H259.686C278.588 1286.77 286.154 1256.92 286.154 1232.87C286.154 1153.83 217.135 1097.11 136.636 1097.11C53.5267 1097.11 -15 1154.86 -15 1231.81C-15 1258.14 -6.72546 1292.77 18.612 1314.72L-4.5553 1319L-8.64756 1319.76V1323.92V1389.03ZM-8.64756 1523.78V1528.78H-3.64756H75.2286H80.2286V1523.78V1442.79V1437.79H75.2286H-3.64756H-8.64756V1442.79V1523.78ZM149.634 287.7V325.05C149.634 343.05 145.071 356.146 137.522 364.682C130.047 373.135 119.085 377.751 104.873 377.751C96.05 377.751 89.4477 375.919 84.3658 372.847C79.3004 369.786 75.3817 365.273 72.2719 359.305C68.7173 352.178 66.8153 343.111 65.8476 332.788C64.8808 322.476 64.8768 311.336 64.8768 300.169V287.7H149.634ZM298.387 287.7V297.522C298.387 309.51 298.38 320.444 297.231 330.152C296.091 339.778 293.872 347.711 289.787 353.904C283.807 361.66 274.678 367.693 259.449 367.693C246.649 367.693 237.404 362.26 231.091 351.951C224.571 341.304 221.041 325.17 221.041 303.875V287.7H298.387ZM92.5084 1308.86C67.7339 1293.54 59.5832 1270.36 59.5832 1248.22C59.5832 1209.06 95.4473 1183.87 134.518 1183.87C153.25 1183.87 172.661 1189.2 187.256 1200.02C201.694 1210.73 211.57 1226.89 211.57 1249.28C211.57 1270.75 204.497 1291.11 184.522 1308.86H92.5084Z" stroke="#92D0FF" stroke-opacity="0.45" stroke-width="10"/>
</g>
<g filter="url(#filter2_d)">
<mask id="path-3-outside-2" maskUnits="userSpaceOnUse" x="2177" y="1029" width="1075" height="671" fill="black">
<rect fill="white" x="2177" y="1029" width="1075" height="671"/>
<path d="M2229.05 1260.22V1097.15H2185.03V1260.22H2229.05ZM2229.05 1074.51V1037H2185.03V1074.51H2229.05ZM2363.87 1133.88V1097.35H2322.37V1061.43H2285.21L2278.4 1097.35H2258.89V1133.88H2278.4V1201.7C2278.4 1211.3 2279.02 1220.9 2281.5 1228.95C2287.38 1250 2304.41 1263.94 2329.8 1263.94C2342.5 1263.94 2357.98 1260.53 2368.51 1254.34L2354.89 1221.83C2349.31 1224.61 2344.05 1226.47 2337.24 1226.47C2327.95 1226.47 2324.23 1220.59 2322.99 1210.99C2322.37 1206.34 2322.37 1202.01 2322.37 1197.05V1133.88H2363.87ZM2546.23 1189.62C2547.47 1183.12 2548.39 1175.38 2548.39 1168.88C2548.39 1125.52 2514.95 1093.63 2469.74 1093.63C2422.99 1093.63 2387.07 1131.41 2387.07 1180.64C2387.07 1229.57 2420.2 1263.94 2469.43 1263.94C2504.42 1263.94 2525.17 1250.93 2543.75 1223.99L2514.95 1204.48C2504.42 1219.97 2493.59 1228.64 2472.53 1228.64C2449.31 1228.64 2434.75 1211.92 2431.66 1189.62H2546.23ZM2433.82 1159.59C2438.47 1141.32 2449.93 1128 2470.98 1128C2488.94 1128 2502.57 1140.08 2503.5 1159.59H2433.82ZM2622.99 1097.35H2584.9V1260.22H2628.87V1149.99C2635.37 1139.15 2646.83 1132.03 2659.53 1132.03C2665.1 1132.03 2670.36 1133.27 2675.01 1135.74L2685.54 1097.35C2679.65 1095.18 2672.53 1093.63 2664.48 1093.63C2648.38 1093.63 2635.68 1103.85 2626.39 1119.02L2622.99 1097.35ZM2842.23 1260.22V1162.37C2842.23 1119.95 2820.24 1093.63 2775.03 1093.63C2750.88 1093.63 2725.8 1100.13 2705.05 1110.35L2716.82 1141.94C2731.06 1134.5 2747.47 1127.69 2766.05 1127.69C2789.9 1127.69 2798.26 1140.08 2798.26 1160.51V1162.99C2788.04 1160.82 2777.82 1159.59 2768.84 1159.59C2735.09 1159.59 2697.93 1172.28 2697.93 1212.23C2697.93 1245.67 2726.11 1263.94 2756.45 1263.94C2773.79 1263.94 2790.2 1259.29 2800.73 1246.29L2804.14 1260.22H2842.23ZM2798.26 1219.35C2788.97 1227.71 2778.44 1233.28 2765.74 1233.28C2752.74 1233.28 2740.97 1225.85 2740.97 1211.61C2740.97 1192.41 2759.86 1186.53 2775.96 1186.53C2782.77 1186.53 2789.9 1187.45 2798.26 1189.31V1219.35ZM2975.44 1133.88V1097.35H2933.94V1061.43H2896.79L2889.97 1097.35H2870.46V1133.88H2889.97V1201.7C2889.97 1211.3 2890.59 1220.9 2893.07 1228.95C2898.95 1250 2915.98 1263.94 2941.37 1263.94C2954.07 1263.94 2969.55 1260.53 2980.08 1254.34L2966.46 1221.83C2960.88 1224.61 2955.62 1226.47 2948.81 1226.47C2939.52 1226.47 2935.8 1220.59 2934.56 1210.99C2933.94 1206.34 2933.94 1202.01 2933.94 1197.05V1133.88H2975.44ZM3157.8 1189.62C3159.04 1183.12 3159.97 1175.38 3159.97 1168.88C3159.97 1125.52 3126.52 1093.63 3081.31 1093.63C3034.56 1093.63 2998.64 1131.41 2998.64 1180.64C2998.64 1229.57 3031.77 1263.94 3081.01 1263.94C3116 1263.94 3136.74 1250.93 3155.32 1223.99L3126.52 1204.48C3116 1219.97 3105.16 1228.64 3084.1 1228.64C3060.88 1228.64 3046.32 1211.92 3043.23 1189.62H3157.8ZM3045.4 1159.59C3050.04 1141.32 3061.5 1128 3082.55 1128C3100.51 1128 3114.14 1140.08 3115.07 1159.59H3045.4ZM3237.96 1214.08H3191.21L3173.87 1299.24H3215.67L3237.96 1214.08ZM2229.28 1473.97V1257.22H2185V1473.97H2229.28ZM2366.71 1347.63V1311.1H2325.22V1275.18H2288.06L2281.25 1311.1H2261.74V1347.63H2281.25V1415.45C2281.25 1425.05 2281.87 1434.65 2284.34 1442.7C2290.23 1463.75 2307.26 1477.69 2332.65 1477.69C2345.35 1477.69 2360.83 1474.28 2371.36 1468.09L2357.73 1435.58C2352.16 1438.36 2346.89 1440.22 2340.08 1440.22C2330.79 1440.22 2327.08 1434.34 2325.84 1424.74C2325.22 1420.09 2325.22 1415.76 2325.22 1410.8V1347.63H2366.71ZM2549.07 1403.37C2550.31 1396.87 2551.24 1389.13 2551.24 1382.63C2551.24 1339.27 2517.8 1307.38 2472.59 1307.38C2425.83 1307.38 2389.91 1345.16 2389.91 1394.39C2389.91 1443.32 2423.05 1477.69 2472.28 1477.69C2507.27 1477.69 2528.02 1464.68 2546.6 1437.74L2517.8 1418.23C2507.27 1433.72 2496.43 1442.39 2475.38 1442.39C2452.15 1442.39 2437.6 1425.67 2434.5 1403.37H2549.07ZM2436.67 1373.34C2441.32 1355.07 2452.77 1341.75 2473.83 1341.75C2491.79 1341.75 2505.41 1353.83 2506.34 1373.34H2436.67ZM2625.83 1311.1H2587.75V1473.97H2631.72V1363.74C2638.22 1352.9 2649.68 1345.78 2662.37 1345.78C2667.95 1345.78 2673.21 1347.02 2677.85 1349.49L2688.38 1311.1C2682.5 1308.93 2675.38 1307.38 2667.33 1307.38C2651.22 1307.38 2638.53 1317.6 2629.24 1332.77L2625.83 1311.1ZM2845.07 1473.97V1376.12C2845.07 1333.7 2823.09 1307.38 2777.88 1307.38C2753.73 1307.38 2728.64 1313.88 2707.9 1324.1L2719.66 1355.69C2733.91 1348.25 2750.32 1341.44 2768.9 1341.44C2792.74 1341.44 2801.1 1353.83 2801.1 1374.26V1376.74C2790.88 1374.57 2780.67 1373.34 2771.69 1373.34C2737.93 1373.34 2700.78 1386.03 2700.78 1425.98C2700.78 1459.42 2728.95 1477.69 2759.3 1477.69C2776.64 1477.69 2793.05 1473.04 2803.58 1460.04L2806.99 1473.97H2845.07ZM2801.1 1433.1C2791.81 1441.46 2781.28 1447.03 2768.59 1447.03C2755.58 1447.03 2743.82 1439.6 2743.82 1425.36C2743.82 1406.16 2762.71 1400.28 2778.81 1400.28C2785.62 1400.28 2792.74 1401.2 2801.1 1403.06V1433.1ZM2978.28 1347.63V1311.1H2936.79V1275.18H2899.63L2892.82 1311.1H2873.31V1347.63H2892.82V1415.45C2892.82 1425.05 2893.44 1434.65 2895.92 1442.7C2901.8 1463.75 2918.83 1477.69 2944.22 1477.69C2956.92 1477.69 2972.4 1474.28 2982.93 1468.09L2969.3 1435.58C2963.73 1438.36 2958.46 1440.22 2951.65 1440.22C2942.36 1440.22 2938.65 1434.34 2937.41 1424.74C2936.79 1420.09 2936.79 1415.76 2936.79 1410.8V1347.63H2978.28ZM3160.64 1403.37C3161.88 1396.87 3162.81 1389.13 3162.81 1382.63C3162.81 1339.27 3129.37 1307.38 3084.16 1307.38C3037.4 1307.38 3001.48 1345.16 3001.48 1394.39C3001.48 1443.32 3034.62 1477.69 3083.85 1477.69C3118.84 1477.69 3139.59 1464.68 3158.17 1437.74L3129.37 1418.23C3118.84 1433.72 3108 1442.39 3086.95 1442.39C3063.72 1442.39 3049.17 1425.67 3046.07 1403.37H3160.64ZM3048.24 1373.34C3052.89 1355.07 3064.34 1341.75 3085.4 1341.75C3103.36 1341.75 3116.98 1353.83 3117.91 1373.34H3048.24ZM3240.81 1427.83H3194.05L3176.71 1512.99H3218.52L3240.81 1427.83ZM2229.28 1687.72V1470.97H2185V1687.72H2229.28ZM2366.71 1561.38V1524.85H2325.22V1488.93H2288.06L2281.25 1524.85H2261.74V1561.38H2281.25V1629.2C2281.25 1638.8 2281.87 1648.4 2284.34 1656.45C2290.23 1677.5 2307.26 1691.44 2332.65 1691.44C2345.35 1691.44 2360.83 1688.03 2371.36 1681.84L2357.73 1649.33C2352.16 1652.11 2346.89 1653.97 2340.08 1653.97C2330.79 1653.97 2327.08 1648.09 2325.84 1638.49C2325.22 1633.84 2325.22 1629.51 2325.22 1624.55V1561.38H2366.71ZM2549.07 1617.12C2550.31 1610.62 2551.24 1602.88 2551.24 1596.38C2551.24 1553.02 2517.8 1521.13 2472.59 1521.13C2425.83 1521.13 2389.91 1558.91 2389.91 1608.14C2389.91 1657.07 2423.05 1691.44 2472.28 1691.44C2507.27 1691.44 2528.02 1678.43 2546.6 1651.49L2517.8 1631.99C2507.27 1647.47 2496.43 1656.14 2475.38 1656.14C2452.15 1656.14 2437.6 1639.42 2434.5 1617.12H2549.07ZM2436.67 1587.09C2441.32 1568.82 2452.77 1555.5 2473.83 1555.5C2491.79 1555.5 2505.41 1567.58 2506.34 1587.09H2436.67ZM2625.83 1524.85H2587.75V1687.72H2631.72V1577.49C2638.22 1566.65 2649.68 1559.53 2662.37 1559.53C2667.95 1559.53 2673.21 1560.77 2677.85 1563.24L2688.38 1524.85C2682.5 1522.68 2675.38 1521.13 2667.33 1521.13C2651.22 1521.13 2638.53 1531.35 2629.24 1546.52L2625.83 1524.85ZM2845.07 1687.72V1589.87C2845.07 1547.45 2823.09 1521.13 2777.88 1521.13C2753.73 1521.13 2728.64 1527.63 2707.9 1537.85L2719.66 1569.44C2733.91 1562 2750.32 1555.19 2768.9 1555.19C2792.74 1555.19 2801.1 1567.58 2801.1 1588.01V1590.49C2790.88 1588.32 2780.67 1587.09 2771.69 1587.09C2737.93 1587.09 2700.78 1599.78 2700.78 1639.73C2700.78 1673.17 2728.95 1691.44 2759.3 1691.44C2776.64 1691.44 2793.05 1686.79 2803.58 1673.79L2806.99 1687.72H2845.07ZM2801.1 1646.85C2791.81 1655.21 2781.28 1660.78 2768.59 1660.78C2755.58 1660.78 2743.82 1653.35 2743.82 1639.11C2743.82 1619.91 2762.71 1614.03 2778.81 1614.03C2785.62 1614.03 2792.74 1614.95 2801.1 1616.81V1646.85ZM2978.28 1561.38V1524.85H2936.79V1488.93H2899.63L2892.82 1524.85H2873.31V1561.38H2892.82V1629.2C2892.82 1638.8 2893.44 1648.4 2895.92 1656.45C2901.8 1677.5 2918.83 1691.44 2944.22 1691.44C2956.92 1691.44 2972.4 1688.03 2982.93 1681.84L2969.3 1649.33C2963.73 1652.11 2958.46 1653.97 2951.65 1653.97C2942.36 1653.97 2938.65 1648.09 2937.41 1638.49C2936.79 1633.84 2936.79 1629.51 2936.79 1624.55V1561.38H2978.28ZM3160.64 1617.12C3161.88 1610.62 3162.81 1602.88 3162.81 1596.38C3162.81 1553.02 3129.37 1521.13 3084.16 1521.13C3037.4 1521.13 3001.48 1558.91 3001.48 1608.14C3001.48 1657.07 3034.62 1691.44 3083.85 1691.44C3118.84 1691.44 3139.59 1678.43 3158.17 1651.49L3129.37 1631.99C3118.84 1647.47 3108 1656.14 3086.95 1656.14C3063.72 1656.14 3049.17 1639.42 3046.07 1617.12H3160.64ZM3048.24 1587.09C3052.89 1568.82 3064.34 1555.5 3085.4 1555.5C3103.36 1555.5 3116.98 1567.58 3117.91 1587.09H3048.24ZM3240.19 1687.72V1641.58H3192.81V1687.72H3240.19Z"/>
</mask>
<path d="M2229.05 1260.22V1097.15H2185.03V1260.22H2229.05ZM2229.05 1074.51V1037H2185.03V1074.51H2229.05ZM2363.87 1133.88V1097.35H2322.37V1061.43H2285.21L2278.4 1097.35H2258.89V1133.88H2278.4V1201.7C2278.4 1211.3 2279.02 1220.9 2281.5 1228.95C2287.38 1250 2304.41 1263.94 2329.8 1263.94C2342.5 1263.94 2357.98 1260.53 2368.51 1254.34L2354.89 1221.83C2349.31 1224.61 2344.05 1226.47 2337.24 1226.47C2327.95 1226.47 2324.23 1220.59 2322.99 1210.99C2322.37 1206.34 2322.37 1202.01 2322.37 1197.05V1133.88H2363.87ZM2546.23 1189.62C2547.47 1183.12 2548.39 1175.38 2548.39 1168.88C2548.39 1125.52 2514.95 1093.63 2469.74 1093.63C2422.99 1093.63 2387.07 1131.41 2387.07 1180.64C2387.07 1229.57 2420.2 1263.94 2469.43 1263.94C2504.42 1263.94 2525.17 1250.93 2543.75 1223.99L2514.95 1204.48C2504.42 1219.97 2493.59 1228.64 2472.53 1228.64C2449.31 1228.64 2434.75 1211.92 2431.66 1189.62H2546.23ZM2433.82 1159.59C2438.47 1141.32 2449.93 1128 2470.98 1128C2488.94 1128 2502.57 1140.08 2503.5 1159.59H2433.82ZM2622.99 1097.35H2584.9V1260.22H2628.87V1149.99C2635.37 1139.15 2646.83 1132.03 2659.53 1132.03C2665.1 1132.03 2670.36 1133.27 2675.01 1135.74L2685.54 1097.35C2679.65 1095.18 2672.53 1093.63 2664.48 1093.63C2648.38 1093.63 2635.68 1103.85 2626.39 1119.02L2622.99 1097.35ZM2842.23 1260.22V1162.37C2842.23 1119.95 2820.24 1093.63 2775.03 1093.63C2750.88 1093.63 2725.8 1100.13 2705.05 1110.35L2716.82 1141.94C2731.06 1134.5 2747.47 1127.69 2766.05 1127.69C2789.9 1127.69 2798.26 1140.08 2798.26 1160.51V1162.99C2788.04 1160.82 2777.82 1159.59 2768.84 1159.59C2735.09 1159.59 2697.93 1172.28 2697.93 1212.23C2697.93 1245.67 2726.11 1263.94 2756.45 1263.94C2773.79 1263.94 2790.2 1259.29 2800.73 1246.29L2804.14 1260.22H2842.23ZM2798.26 1219.35C2788.97 1227.71 2778.44 1233.28 2765.74 1233.28C2752.74 1233.28 2740.97 1225.85 2740.97 1211.61C2740.97 1192.41 2759.86 1186.53 2775.96 1186.53C2782.77 1186.53 2789.9 1187.45 2798.26 1189.31V1219.35ZM2975.44 1133.88V1097.35H2933.94V1061.43H2896.79L2889.97 1097.35H2870.46V1133.88H2889.97V1201.7C2889.97 1211.3 2890.59 1220.9 2893.07 1228.95C2898.95 1250 2915.98 1263.94 2941.37 1263.94C2954.07 1263.94 2969.55 1260.53 2980.08 1254.34L2966.46 1221.83C2960.88 1224.61 2955.62 1226.47 2948.81 1226.47C2939.52 1226.47 2935.8 1220.59 2934.56 1210.99C2933.94 1206.34 2933.94 1202.01 2933.94 1197.05V1133.88H2975.44ZM3157.8 1189.62C3159.04 1183.12 3159.97 1175.38 3159.97 1168.88C3159.97 1125.52 3126.52 1093.63 3081.31 1093.63C3034.56 1093.63 2998.64 1131.41 2998.64 1180.64C2998.64 1229.57 3031.77 1263.94 3081.01 1263.94C3116 1263.94 3136.74 1250.93 3155.32 1223.99L3126.52 1204.48C3116 1219.97 3105.16 1228.64 3084.1 1228.64C3060.88 1228.64 3046.32 1211.92 3043.23 1189.62H3157.8ZM3045.4 1159.59C3050.04 1141.32 3061.5 1128 3082.55 1128C3100.51 1128 3114.14 1140.08 3115.07 1159.59H3045.4ZM3237.96 1214.08H3191.21L3173.87 1299.24H3215.67L3237.96 1214.08ZM2229.28 1473.97V1257.22H2185V1473.97H2229.28ZM2366.71 1347.63V1311.1H2325.22V1275.18H2288.06L2281.25 1311.1H2261.74V1347.63H2281.25V1415.45C2281.25 1425.05 2281.87 1434.65 2284.34 1442.7C2290.23 1463.75 2307.26 1477.69 2332.65 1477.69C2345.35 1477.69 2360.83 1474.28 2371.36 1468.09L2357.73 1435.58C2352.16 1438.36 2346.89 1440.22 2340.08 1440.22C2330.79 1440.22 2327.08 1434.34 2325.84 1424.74C2325.22 1420.09 2325.22 1415.76 2325.22 1410.8V1347.63H2366.71ZM2549.07 1403.37C2550.31 1396.87 2551.24 1389.13 2551.24 1382.63C2551.24 1339.27 2517.8 1307.38 2472.59 1307.38C2425.83 1307.38 2389.91 1345.16 2389.91 1394.39C2389.91 1443.32 2423.05 1477.69 2472.28 1477.69C2507.27 1477.69 2528.02 1464.68 2546.6 1437.74L2517.8 1418.23C2507.27 1433.72 2496.43 1442.39 2475.38 1442.39C2452.15 1442.39 2437.6 1425.67 2434.5 1403.37H2549.07ZM2436.67 1373.34C2441.32 1355.07 2452.77 1341.75 2473.83 1341.75C2491.79 1341.75 2505.41 1353.83 2506.34 1373.34H2436.67ZM2625.83 1311.1H2587.75V1473.97H2631.72V1363.74C2638.22 1352.9 2649.68 1345.78 2662.37 1345.78C2667.95 1345.78 2673.21 1347.02 2677.85 1349.49L2688.38 1311.1C2682.5 1308.93 2675.38 1307.38 2667.33 1307.38C2651.22 1307.38 2638.53 1317.6 2629.24 1332.77L2625.83 1311.1ZM2845.07 1473.97V1376.12C2845.07 1333.7 2823.09 1307.38 2777.88 1307.38C2753.73 1307.38 2728.64 1313.88 2707.9 1324.1L2719.66 1355.69C2733.91 1348.25 2750.32 1341.44 2768.9 1341.44C2792.74 1341.44 2801.1 1353.83 2801.1 1374.26V1376.74C2790.88 1374.57 2780.67 1373.34 2771.69 1373.34C2737.93 1373.34 2700.78 1386.03 2700.78 1425.98C2700.78 1459.42 2728.95 1477.69 2759.3 1477.69C2776.64 1477.69 2793.05 1473.04 2803.58 1460.04L2806.99 1473.97H2845.07ZM2801.1 1433.1C2791.81 1441.46 2781.28 1447.03 2768.59 1447.03C2755.58 1447.03 2743.82 1439.6 2743.82 1425.36C2743.82 1406.16 2762.71 1400.28 2778.81 1400.28C2785.62 1400.28 2792.74 1401.2 2801.1 1403.06V1433.1ZM2978.28 1347.63V1311.1H2936.79V1275.18H2899.63L2892.82 1311.1H2873.31V1347.63H2892.82V1415.45C2892.82 1425.05 2893.44 1434.65 2895.92 1442.7C2901.8 1463.75 2918.83 1477.69 2944.22 1477.69C2956.92 1477.69 2972.4 1474.28 2982.93 1468.09L2969.3 1435.58C2963.73 1438.36 2958.46 1440.22 2951.65 1440.22C2942.36 1440.22 2938.65 1434.34 2937.41 1424.74C2936.79 1420.09 2936.79 1415.76 2936.79 1410.8V1347.63H2978.28ZM3160.64 1403.37C3161.88 1396.87 3162.81 1389.13 3162.81 1382.63C3162.81 1339.27 3129.37 1307.38 3084.16 1307.38C3037.4 1307.38 3001.48 1345.16 3001.48 1394.39C3001.48 1443.32 3034.62 1477.69 3083.85 1477.69C3118.84 1477.69 3139.59 1464.68 3158.17 1437.74L3129.37 1418.23C3118.84 1433.72 3108 1442.39 3086.95 1442.39C3063.72 1442.39 3049.17 1425.67 3046.07 1403.37H3160.64ZM3048.24 1373.34C3052.89 1355.07 3064.34 1341.75 3085.4 1341.75C3103.36 1341.75 3116.98 1353.83 3117.91 1373.34H3048.24ZM3240.81 1427.83H3194.05L3176.71 1512.99H3218.52L3240.81 1427.83ZM2229.28 1687.72V1470.97H2185V1687.72H2229.28ZM2366.71 1561.38V1524.85H2325.22V1488.93H2288.06L2281.25 1524.85H2261.74V1561.38H2281.25V1629.2C2281.25 1638.8 2281.87 1648.4 2284.34 1656.45C2290.23 1677.5 2307.26 1691.44 2332.65 1691.44C2345.35 1691.44 2360.83 1688.03 2371.36 1681.84L2357.73 1649.33C2352.16 1652.11 2346.89 1653.97 2340.08 1653.97C2330.79 1653.97 2327.08 1648.09 2325.84 1638.49C2325.22 1633.84 2325.22 1629.51 2325.22 1624.55V1561.38H2366.71ZM2549.07 1617.12C2550.31 1610.62 2551.24 1602.88 2551.24 1596.38C2551.24 1553.02 2517.8 1521.13 2472.59 1521.13C2425.83 1521.13 2389.91 1558.91 2389.91 1608.14C2389.91 1657.07 2423.05 1691.44 2472.28 1691.44C2507.27 1691.44 2528.02 1678.43 2546.6 1651.49L2517.8 1631.99C2507.27 1647.47 2496.43 1656.14 2475.38 1656.14C2452.15 1656.14 2437.6 1639.42 2434.5 1617.12H2549.07ZM2436.67 1587.09C2441.32 1568.82 2452.77 1555.5 2473.83 1555.5C2491.79 1555.5 2505.41 1567.58 2506.34 1587.09H2436.67ZM2625.83 1524.85H2587.75V1687.72H2631.72V1577.49C2638.22 1566.65 2649.68 1559.53 2662.37 1559.53C2667.95 1559.53 2673.21 1560.77 2677.85 1563.24L2688.38 1524.85C2682.5 1522.68 2675.38 1521.13 2667.33 1521.13C2651.22 1521.13 2638.53 1531.35 2629.24 1546.52L2625.83 1524.85ZM2845.07 1687.72V1589.87C2845.07 1547.45 2823.09 1521.13 2777.88 1521.13C2753.73 1521.13 2728.64 1527.63 2707.9 1537.85L2719.66 1569.44C2733.91 1562 2750.32 1555.19 2768.9 1555.19C2792.74 1555.19 2801.1 1567.58 2801.1 1588.01V1590.49C2790.88 1588.32 2780.67 1587.09 2771.69 1587.09C2737.93 1587.09 2700.78 1599.78 2700.78 1639.73C2700.78 1673.17 2728.95 1691.44 2759.3 1691.44C2776.64 1691.44 2793.05 1686.79 2803.58 1673.79L2806.99 1687.72H2845.07ZM2801.1 1646.85C2791.81 1655.21 2781.28 1660.78 2768.59 1660.78C2755.58 1660.78 2743.82 1653.35 2743.82 1639.11C2743.82 1619.91 2762.71 1614.03 2778.81 1614.03C2785.62 1614.03 2792.74 1614.95 2801.1 1616.81V1646.85ZM2978.28 1561.38V1524.85H2936.79V1488.93H2899.63L2892.82 1524.85H2873.31V1561.38H2892.82V1629.2C2892.82 1638.8 2893.44 1648.4 2895.92 1656.45C2901.8 1677.5 2918.83 1691.44 2944.22 1691.44C2956.92 1691.44 2972.4 1688.03 2982.93 1681.84L2969.3 1649.33C2963.73 1652.11 2958.46 1653.97 2951.65 1653.97C2942.36 1653.97 2938.65 1648.09 2937.41 1638.49C2936.79 1633.84 2936.79 1629.51 2936.79 1624.55V1561.38H2978.28ZM3160.64 1617.12C3161.88 1610.62 3162.81 1602.88 3162.81 1596.38C3162.81 1553.02 3129.37 1521.13 3084.16 1521.13C3037.4 1521.13 3001.48 1558.91 3001.48 1608.14C3001.48 1657.07 3034.62 1691.44 3083.85 1691.44C3118.84 1691.44 3139.59 1678.43 3158.17 1651.49L3129.37 1631.99C3118.84 1647.47 3108 1656.14 3086.95 1656.14C3063.72 1656.14 3049.17 1639.42 3046.07 1617.12H3160.64ZM3048.24 1587.09C3052.89 1568.82 3064.34 1555.5 3085.4 1555.5C3103.36 1555.5 3116.98 1567.58 3117.91 1587.09H3048.24ZM3240.19 1687.72V1641.58H3192.81V1687.72H3240.19Z" stroke="#FCF539" stroke-opacity="0.61" stroke-width="16" mask="url(#path-3-outside-2)"/>
</g>
<g filter="url(#filter3_d)">
<rect x="2404" y="132" width="750.753" height="285.814" stroke="#FD861F" stroke-opacity="0.2" stroke-width="8"/>
</g>
<g filter="url(#filter4_d)">
<rect x="-194" y="2412" width="585.661" height="517.964" stroke="#FD861F" stroke-opacity="0.2" stroke-width="8"/>
</g>
</g>
<defs>
<filter id="filter0_d" x="1630" y="2743" width="1296.15" height="314.93" filterUnits="userSpaceOnUse" color-interpolation-filters="sRGB">
<feFlood flood-opacity="0" result="BackgroundImageFix"/>
<feColorMatrix in="SourceAlpha" type="matrix" values="0 0 0 0 0 0 0 0 0 0 0 0 0 0 0 0 0 0 127 0"/>
<feOffset dx="16" dy="20"/>
<feColorMatrix type="matrix" values="0 0 0 0 0.756863 0 0 0 0 0.290196 0 0 0 0 0.882353 0 0 0 0.2 0"/>
<feBlend mode="normal" in2="BackgroundImageFix" result="effect1_dropShadow"/>
<feBlend mode="normal" in="SourceGraphic" in2="effect1_dropShadow" result="shape"/>
</filter>
<filter id="filter1_d" x="-60" y="197" width="463.38" height="1391.78" filterUnits="userSpaceOnUse" color-interpolation-filters="sRGB">
<feFlood flood-opacity="0" result="BackgroundImageFix"/>
<feColorMatrix in="SourceAlpha" type="matrix" values="0 0 0 0 0 0 0 0 0 0 0 0 0 0 0 0 0 0 127 0"/>
<feOffset dx="-40" dy="55"/>
<feColorMatrix type="matrix" values="0 0 0 0 1 0 0 0 0 0.678431 0 0 0 0 0.827451 0 0 0 0.25 0"/>
<feBlend mode="normal" in2="BackgroundImageFix" result="effect1_dropShadow"/>
<feBlend mode="normal" in="SourceGraphic" in2="effect1_dropShadow" result="shape"/>
</filter>
<filter id="filter2_d" x="2177" y="1029" width="1104.17" height="700.438" filterUnits="userSpaceOnUse" color-interpolation-filters="sRGB">
<feFlood flood-opacity="0" result="BackgroundImageFix"/>
<feColorMatrix in="SourceAlpha" type="matrix" values="0 0 0 0 0 0 0 0 0 0 0 0 0 0 0 0 0 0 127 0"/>
<feOffset dx="30" dy="30"/>
<feColorMatrix type="matrix" values="0 0 0 0 0.616741 0 0 0 0 0.766667 0 0 0 0 0 0 0 0 0.45 0"/>
<feBlend mode="normal" in2="BackgroundImageFix" result="effect1_dropShadow"/>
<feBlend mode="normal" in="SourceGraphic" in2="effect1_dropShadow" result="shape"/>
</filter>
<filter id="filter3_d" x="2400" y="128" width="793.753" height="328.814" filterUnits="userSpaceOnUse" color-interpolation-filters="sRGB">
<feFlood flood-opacity="0" result="BackgroundImageFix"/>
<feColorMatrix in="SourceAlpha" type="matrix" values="0 0 0 0 0 0 0 0 0 0 0 0 0 0 0 0 0 0 127 0"/>
<feOffset dx="35" dy="35"/>
<feColorMatrix type="matrix" values="0 0 0 0 0.756863 0 0 0 0 0.290196 0 0 0 0 0.882353 0 0 0 0.2 0"/>
<feBlend mode="normal" in2="BackgroundImageFix" result="effect1_dropShadow"/>
<feBlend mode="normal" in="SourceGraphic" in2="effect1_dropShadow" result="shape"/>
</filter>
<filter id="filter4_d" x="-198" y="2408" width="623.661" height="560.964" filterUnits="userSpaceOnUse" color-interpolation-filters="sRGB">
<feFlood flood-opacity="0" result="BackgroundImageFix"/>
<feColorMatrix in="SourceAlpha" type="matrix" values="0 0 0 0 0 0 0 0 0 0 0 0 0 0 0 0 0 0 127 0"/>
<feOffset dx="30" dy="35"/>
<feColorMatrix type="matrix" values="0 0 0 0 0.756863 0 0 0 0 0.290196 0 0 0 0 0.882353 0 0 0 0.2 0"/>
<feBlend mode="normal" in2="BackgroundImageFix" result="effect1_dropShadow"/>
<feBlend mode="normal" in="SourceGraphic" in2="effect1_dropShadow" result="shape"/>
</filter>
<clipPath id="clip0">
<rect width="3000" height="3500" fill="white"/>
</clipPath>
</defs>
</svg>
