<svg width="504" height="316" viewBox="0 0 504 316" fill="none" xmlns="http://www.w3.org/2000/svg">
<path d="M50.4081 2.83411L502 2.00037L453.267 27.0971L2 27.1805L50.4081 2.83411Z" fill="#B5E736"/>
<path d="M453.267 312L502 286.486V2.00037L453.267 27.0971V312Z" fill="#B5E736"/>
<path d="M2 312H453.267V27.0971L2 27.1805L2 312Z" fill="#B5E736"/>
<path d="M453.267 312H2L2 27.1805M453.267 312L502 286.486V2.00035M453.267 312V27.0971M502 2.00035L50.4081 2.83409L2 27.1805M502 2.00035L453.267 27.0971M2 27.1805L453.267 27.0971" stroke="#5C8000" stroke-width="3.48675" stroke-linejoin="bevel"/>
<rect x="6.18433" y="28.4746" width="443.515" height="280.937" fill="#D3F089"/>
<path d="M82.2723 184.562C86.2323 180.962 89.5523 177.902 92.2323 175.382C94.9123 172.822 97.0723 170.662 98.7123 168.902C100.392 167.142 101.652 165.642 102.492 164.402C103.372 163.162 103.972 162.082 104.292 161.162C104.612 160.202 104.772 159.262 104.772 158.342C104.772 156.462 104.232 155.062 103.152 154.142C102.112 153.182 100.712 152.702 98.9523 152.702C97.0723 152.702 95.5923 153.242 94.5123 154.322C93.4323 155.362 92.8923 156.642 92.8923 158.162C92.8923 159.202 93.0323 160.142 93.3123 160.982C93.6323 161.782 94.0523 162.522 94.5723 163.202L88.6323 168.062C87.9923 167.382 87.3323 166.482 86.6523 165.362C86.0123 164.242 85.4723 162.982 85.0323 161.582C84.5923 160.182 84.3723 158.782 84.3723 157.382C84.3723 155.902 84.6723 154.402 85.2723 152.883C85.9123 151.362 86.8723 149.962 88.1523 148.682C89.4323 147.362 91.0523 146.302 93.0123 145.502C95.0123 144.702 97.3523 144.302 100.032 144.302C104.752 144.302 108.252 145.422 110.532 147.662C112.812 149.902 113.952 152.762 113.952 156.242C113.952 158.482 113.592 160.582 112.872 162.542C112.152 164.462 110.952 166.502 109.272 168.662C107.632 170.822 105.372 173.322 102.492 176.162H112.032L111.012 184.562H82.2723ZM136.869 184.502C134.949 184.502 133.069 184.222 131.229 183.662C129.429 183.102 127.809 182.202 126.369 180.962C124.929 179.682 123.769 178.002 122.889 175.922C122.049 173.842 121.629 171.282 121.629 168.242C121.629 167.602 121.689 166.602 121.809 165.242C121.929 163.842 122.169 162.242 122.529 160.442C122.929 158.642 123.549 156.822 124.389 154.982C125.229 153.102 126.329 151.362 127.689 149.762C129.089 148.162 130.849 146.882 132.969 145.922C135.089 144.922 137.649 144.422 140.649 144.422C142.489 144.422 144.349 144.762 146.229 145.442C148.109 146.122 149.809 147.182 151.329 148.622C152.849 150.062 153.989 151.922 154.749 154.202C155.549 156.482 155.789 159.222 155.469 162.422C155.229 166.462 154.389 170.162 152.949 173.522C151.549 176.882 149.509 179.562 146.829 181.562C144.189 183.522 140.869 184.502 136.869 184.502ZM137.949 176.222C139.509 176.222 140.809 175.742 141.849 174.782C142.929 173.822 143.789 172.602 144.429 171.122C145.069 169.602 145.529 167.982 145.809 166.262C146.129 164.542 146.289 162.922 146.289 161.402C146.289 158.962 145.949 157.122 145.269 155.882C144.589 154.642 143.709 153.802 142.629 153.362C141.549 152.922 140.429 152.702 139.269 152.702C137.709 152.702 136.389 153.182 135.309 154.142C134.269 155.102 133.409 156.342 132.729 157.862C132.089 159.342 131.609 160.942 131.289 162.662C131.009 164.382 130.869 166.002 130.869 167.522C130.869 169.922 131.209 171.762 131.889 173.042C132.609 174.282 133.509 175.122 134.589 175.562C135.669 176.002 136.789 176.222 137.949 176.222ZM167.662 144.782H179.602L174.682 184.562H165.922L169.762 153.182H166.582L167.662 144.782ZM217.225 144.782L197.725 184.562H187.765L203.425 153.182H189.265L190.345 144.782H217.225ZM222.621 167.162H233.901L233.001 174.482H221.721L222.621 167.162ZM239.761 184.562C243.721 180.962 247.041 177.902 249.721 175.382C252.401 172.822 254.561 170.662 256.201 168.902C257.881 167.142 259.141 165.642 259.981 164.402C260.861 163.162 261.461 162.082 261.781 161.162C262.101 160.202 262.261 159.262 262.261 158.342C262.261 156.462 261.721 155.062 260.641 154.142C259.601 153.182 258.201 152.702 256.441 152.702C254.561 152.702 253.081 153.242 252.001 154.322C250.921 155.362 250.381 156.642 250.381 158.162C250.381 159.202 250.521 160.142 250.801 160.982C251.121 161.782 251.541 162.522 252.061 163.202L246.121 168.062C245.481 167.382 244.821 166.482 244.141 165.362C243.501 164.242 242.961 162.982 242.521 161.582C242.081 160.182 241.861 158.782 241.861 157.382C241.861 155.902 242.161 154.402 242.761 152.883C243.401 151.362 244.361 149.962 245.641 148.682C246.921 147.362 248.541 146.302 250.501 145.502C252.501 144.702 254.841 144.302 257.521 144.302C262.241 144.302 265.741 145.422 268.021 147.662C270.301 149.902 271.441 152.762 271.441 156.242C271.441 158.482 271.081 160.582 270.361 162.542C269.641 164.462 268.441 166.502 266.761 168.662C265.121 170.822 262.861 173.322 259.981 176.162H269.521L268.501 184.562H239.761ZM294.357 184.502C292.437 184.502 290.557 184.222 288.717 183.662C286.917 183.102 285.297 182.202 283.857 180.962C282.417 179.682 281.257 178.002 280.377 175.922C279.537 173.842 279.117 171.282 279.117 168.242C279.117 167.602 279.177 166.602 279.297 165.242C279.417 163.842 279.657 162.242 280.017 160.442C280.417 158.642 281.037 156.822 281.877 154.982C282.717 153.102 283.817 151.362 285.177 149.762C286.577 148.162 288.337 146.882 290.457 145.922C292.577 144.922 295.137 144.422 298.137 144.422C299.977 144.422 301.837 144.762 303.717 145.442C305.597 146.122 307.297 147.182 308.817 148.622C310.337 150.062 311.477 151.922 312.237 154.202C313.037 156.482 313.277 159.222 312.957 162.422C312.717 166.462 311.877 170.162 310.437 173.522C309.037 176.882 306.997 179.562 304.317 181.562C301.677 183.522 298.357 184.502 294.357 184.502ZM295.437 176.222C296.997 176.222 298.297 175.742 299.337 174.782C300.417 173.822 301.277 172.602 301.917 171.122C302.557 169.602 303.017 167.982 303.297 166.262C303.617 164.542 303.777 162.922 303.777 161.402C303.777 158.962 303.437 157.122 302.757 155.882C302.077 154.642 301.197 153.802 300.117 153.362C299.037 152.922 297.917 152.702 296.757 152.702C295.197 152.702 293.877 153.182 292.797 154.142C291.757 155.102 290.897 156.342 290.217 157.862C289.577 159.342 289.097 160.942 288.777 162.662C288.497 164.382 288.357 166.002 288.357 167.522C288.357 169.922 288.697 171.762 289.377 173.042C290.097 174.282 290.997 175.122 292.077 175.562C293.157 176.002 294.277 176.222 295.437 176.222ZM325.15 144.782H337.09L332.17 184.562H323.41L327.25 153.182H324.07L325.15 144.782ZM344.293 172.142C344.293 170.062 344.693 168.262 345.493 166.742C346.293 165.182 347.333 163.862 348.613 162.782C349.893 161.662 351.233 160.762 352.633 160.082C351.993 159.242 351.433 158.402 350.953 157.562C350.473 156.722 350.233 155.662 350.233 154.382C350.233 153.382 350.433 152.302 350.833 151.142C351.233 149.982 351.873 148.882 352.753 147.842C353.673 146.802 354.853 145.962 356.293 145.322C357.773 144.642 359.573 144.302 361.693 144.302C363.813 144.302 365.733 144.702 367.453 145.502C369.173 146.262 370.553 147.282 371.593 148.562C372.633 149.842 373.153 151.282 373.153 152.883C373.153 154.842 372.773 156.402 372.013 157.562C371.253 158.722 370.193 159.882 368.833 161.042C369.633 161.642 370.453 162.402 371.293 163.322C372.173 164.202 372.913 165.282 373.513 166.562C374.113 167.802 374.413 169.262 374.413 170.942C374.413 171.782 374.253 172.802 373.933 174.002C373.613 175.162 373.073 176.382 372.313 177.662C371.593 178.942 370.613 180.142 369.373 181.262C368.173 182.382 366.693 183.302 364.933 184.022C363.173 184.703 361.113 185.043 358.753 185.043C355.833 185.043 353.293 184.442 351.133 183.242C348.973 182.002 347.293 180.402 346.093 178.442C344.893 176.482 344.293 174.382 344.293 172.142ZM358.633 154.802C358.633 155.562 358.933 156.222 359.533 156.782C360.133 157.342 360.773 157.622 361.453 157.622C362.373 157.622 363.133 157.322 363.733 156.722C364.333 156.122 364.633 155.402 364.633 154.563C364.633 153.682 364.353 152.982 363.793 152.462C363.233 151.902 362.593 151.622 361.873 151.622C360.793 151.622 359.973 151.942 359.413 152.582C358.893 153.182 358.633 153.922 358.633 154.802ZM353.233 171.722C353.233 173.362 353.693 174.782 354.613 175.982C355.573 177.142 356.993 177.722 358.873 177.722C360.953 177.722 362.613 177.062 363.853 175.743C365.133 174.382 365.773 172.762 365.773 170.882C365.773 169.242 365.233 167.842 364.153 166.682C363.073 165.482 361.693 164.882 360.013 164.882C358.413 164.882 357.113 165.262 356.113 166.022C355.113 166.742 354.373 167.642 353.893 168.723C353.453 169.762 353.233 170.762 353.233 171.722Z" fill="#5D7400"/>
<path d="M452.837 314L501.57 288.486V4.00037L452.837 29.0971V314Z" fill="#8CC104" stroke="#5C8000" stroke-width="3.48675" stroke-linejoin="bevel"/>
</svg>
