<svg width="506" height="316" viewBox="0 0 506 316" fill="none" xmlns="http://www.w3.org/2000/svg">
<path d="M4.34757 282.988L3.02067 3.00763L43.4974 33.2213L43.614 313L4.34757 282.988Z" fill="#5EBAFE"/>
<path d="M503.018 33.2213L461.869 3.00763H3.02067L43.4974 33.2213H503.018Z" fill="#5EBAFE"/>
<path d="M503 313L503.018 33.2213H43.4974L43.614 313H503Z" fill="#5EBAFE"/>
<path d="M503.018 33.2213L503 313H43.614M503.018 33.2213L461.869 3.00762H3.02067M503.018 33.2213H43.4974M3.02067 3.00762L4.34757 282.988L43.614 313M3.02067 3.00762L43.4974 33.2213M43.614 313L43.4974 33.2213" stroke="#1B3862" stroke-width="4.49742" stroke-linejoin="bevel"/>
<rect width="454.886" height="273.796" transform="matrix(1 0 -6.38608e-05 1 45.2919 36.5957)" fill="#B4DFFF"/>
<path d="M4.34007 282.98L3.01978 2.99982L43.2975 33.2135L43.4135 312.992L4.34007 282.98Z" fill="#1082D7" stroke="#1B3862" stroke-width="4.49742" stroke-linejoin="bevel"/>
<path d="M130.192 188C134.153 184.4 137.473 181.34 140.153 178.82C142.833 176.26 144.993 174.1 146.633 172.34C148.313 170.58 149.574 169.08 150.414 167.84C151.294 166.6 151.894 165.52 152.214 164.6C152.534 163.64 152.694 162.7 152.694 161.78C152.694 159.9 152.154 158.5 151.074 157.58C150.034 156.62 148.634 156.14 146.874 156.14C144.994 156.14 143.514 156.68 142.434 157.76C141.354 158.8 140.814 160.08 140.814 161.6C140.814 162.64 140.954 163.58 141.234 164.42C141.554 165.22 141.974 165.96 142.494 166.64L136.553 171.5C135.913 170.82 135.254 169.92 134.574 168.8C133.934 167.68 133.394 166.42 132.954 165.02C132.514 163.62 132.294 162.22 132.294 160.82C132.294 159.34 132.594 157.84 133.194 156.32C133.834 154.8 134.795 153.4 136.075 152.12C137.355 150.8 138.975 149.74 140.935 148.94C142.935 148.14 145.275 147.74 147.955 147.74C152.675 147.74 156.175 148.86 158.455 151.1C160.735 153.34 161.874 156.2 161.874 159.68C161.874 161.92 161.514 164.02 160.794 165.98C160.074 167.9 158.874 169.94 157.193 172.1C155.553 174.26 153.293 176.76 150.413 179.6H159.953L158.932 188H130.192ZM183.589 187.94C181.669 187.94 179.789 187.66 177.949 187.1C176.149 186.54 174.529 185.64 173.089 184.4C171.649 183.12 170.489 181.44 169.609 179.36C168.769 177.28 168.349 174.72 168.35 171.68C168.35 171.04 168.41 170.04 168.53 168.68C168.65 167.28 168.89 165.68 169.25 163.88C169.65 162.08 170.27 160.26 171.111 158.42C171.951 156.54 173.051 154.8 174.411 153.2C175.811 151.6 177.571 150.32 179.691 149.36C181.811 148.36 184.371 147.86 187.371 147.86C189.211 147.86 191.071 148.2 192.951 148.88C194.831 149.56 196.531 150.62 198.051 152.06C199.571 153.5 200.711 155.36 201.471 157.64C202.27 159.92 202.51 162.66 202.19 165.86C201.95 169.9 201.11 173.6 199.669 176.96C198.269 180.32 196.229 183 193.549 185C190.909 186.96 187.589 187.94 183.589 187.94ZM184.669 179.66C186.229 179.66 187.529 179.18 188.569 178.22C189.649 177.26 190.509 176.04 191.149 174.56C191.79 173.04 192.25 171.42 192.53 169.7C192.85 167.98 193.01 166.36 193.01 164.84C193.01 162.4 192.67 160.56 191.99 159.32C191.311 158.08 190.431 157.24 189.351 156.8C188.271 156.36 187.151 156.14 185.991 156.14C184.431 156.14 183.111 156.62 182.031 157.58C180.991 158.54 180.13 159.78 179.45 161.3C178.81 162.78 178.33 164.38 178.01 166.1C177.73 167.82 177.59 169.44 177.59 170.96C177.59 173.36 177.929 175.2 178.609 176.48C179.329 177.72 180.229 178.56 181.309 179C182.389 179.44 183.509 179.66 184.669 179.66ZM213.185 148.22H225.125L220.202 188H211.442L215.284 156.62H212.104L213.185 148.22ZM246.605 188.48C243.845 188.48 241.385 187.88 239.225 186.68C237.105 185.48 235.425 183.74 234.185 181.46C232.946 179.18 232.326 176.4 232.326 173.12C232.326 170.24 232.966 167.3 234.247 164.3C235.527 161.26 237.647 158.28 240.607 155.36C243.567 152.44 247.547 149.74 252.548 147.26L257.587 153.92C254.147 155 251.287 156.48 249.007 158.36C246.727 160.24 244.987 162.2 243.787 164.24C244.747 163.52 245.847 162.96 247.087 162.56C248.327 162.16 249.767 161.96 251.407 161.96C252.327 161.96 253.387 162.16 254.587 162.56C255.787 162.92 256.947 163.56 258.067 164.48C259.226 165.4 260.186 166.62 260.946 168.14C261.706 169.66 262.086 171.56 262.086 173.84C262.086 175.28 261.786 176.86 261.186 178.58C260.626 180.26 259.725 181.86 258.485 183.38C257.245 184.86 255.645 186.08 253.685 187.04C251.725 188 249.365 188.48 246.605 188.48ZM246.665 180.68C248.305 180.68 249.586 180.32 250.506 179.6C251.426 178.84 252.066 177.96 252.426 176.96C252.826 175.92 253.026 175 253.026 174.2C253.026 172.56 252.466 171.3 251.346 170.42C250.266 169.54 248.886 169.1 247.206 169.1C245.566 169.1 244.286 169.42 243.366 170.06C242.446 170.7 241.806 171.48 241.446 172.4C241.086 173.32 240.906 174.2 240.906 175.04C240.906 176.6 241.446 177.94 242.526 179.06C243.606 180.14 244.985 180.68 246.665 180.68ZM270.722 170.6H282.002L281.102 177.92H269.822L270.722 170.6ZM286.661 188C290.621 184.4 293.942 181.34 296.622 178.82C299.302 176.26 301.462 174.1 303.102 172.34C304.782 170.58 306.042 169.08 306.882 167.84C307.762 166.6 308.363 165.52 308.683 164.6C309.003 163.64 309.163 162.7 309.163 161.78C309.163 159.9 308.623 158.5 307.543 157.58C306.503 156.62 305.103 156.14 303.343 156.14C301.463 156.14 299.983 156.68 298.903 157.76C297.823 158.8 297.283 160.08 297.283 161.6C297.283 162.64 297.423 163.58 297.703 164.42C298.023 165.22 298.443 165.96 298.962 166.64L293.022 171.5C292.382 170.82 291.722 169.92 291.042 168.8C290.402 167.68 289.863 166.42 289.423 165.02C288.983 163.62 288.763 162.22 288.763 160.82C288.763 159.34 289.063 157.84 289.663 156.32C290.303 154.8 291.263 153.4 292.543 152.12C293.824 150.8 295.444 149.74 297.404 148.94C299.404 148.14 301.744 147.74 304.424 147.74C309.144 147.74 312.644 148.86 314.923 151.1C317.203 153.34 318.343 156.2 318.343 159.68C318.343 161.92 317.983 164.02 317.263 165.98C316.542 167.9 315.342 169.94 313.662 172.1C312.022 174.26 309.762 176.76 306.882 179.6H316.422L315.401 188H286.661ZM340.057 187.94C338.137 187.94 336.257 187.66 334.417 187.1C332.617 186.54 330.998 185.64 329.558 184.4C328.118 183.12 326.958 181.44 326.078 179.36C325.238 177.28 324.818 174.72 324.818 171.68C324.818 171.04 324.879 170.04 324.999 168.68C325.119 167.28 325.359 165.68 325.719 163.88C326.119 162.08 326.739 160.26 327.579 158.42C328.419 156.54 329.519 154.8 330.88 153.2C332.28 151.6 334.04 150.32 336.16 149.36C338.28 148.36 340.84 147.86 343.84 147.86C345.68 147.86 347.54 148.2 349.42 148.88C351.3 149.56 353 150.62 354.52 152.06C356.04 153.5 357.179 155.36 357.939 157.64C358.739 159.92 358.979 162.66 358.659 165.86C358.419 169.9 357.578 173.6 356.138 176.96C354.738 180.32 352.698 183 350.018 185C347.377 186.96 344.057 187.94 340.057 187.94ZM341.138 179.66C342.698 179.66 343.998 179.18 345.038 178.22C346.118 177.26 346.978 176.04 347.618 174.56C348.258 173.04 348.718 171.42 348.999 169.7C349.319 167.98 349.479 166.36 349.479 164.84C349.479 162.4 349.139 160.56 348.459 159.32C347.779 158.08 346.899 157.24 345.819 156.8C344.739 156.36 343.619 156.14 342.459 156.14C340.899 156.14 339.579 156.62 338.499 157.58C337.459 158.54 336.599 159.78 335.919 161.3C335.279 162.78 334.799 164.38 334.479 166.1C334.199 167.82 334.059 169.44 334.058 170.96C334.058 173.36 334.398 175.2 335.078 176.48C335.798 177.72 336.698 178.56 337.778 179C338.858 179.44 339.978 179.66 341.138 179.66ZM369.654 148.22H381.594L376.671 188H367.911L371.753 156.62H368.573L369.654 148.22ZM418.016 148.22L398.514 188H388.554L404.216 156.62H390.056L391.136 148.22H418.016Z" fill="#1B3862"/>
</svg>