<svg width="647" height="215" viewBox="0 0 647 215" fill="none" xmlns="http://www.w3.org/2000/svg">
<path d="M4.7263 191.766L3.01437 3.00554L54.9059 23.3754L55.0663 212L4.7263 191.766Z" fill="#F96398"/>
<path d="M644.002 23.3754L591.248 3.00554H3.01437L54.9059 23.3754H644.002Z" fill="#F96398"/>
<path d="M643.99 212L644.002 23.3754H54.9059L55.0663 212H643.99Z" fill="#F96398"/>
<path d="M644.002 23.3754L643.99 212H55.0663M644.002 23.3754L591.248 3.00554H3.01437M644.002 23.3754H54.9059M3.01437 3.00554L4.7263 191.766L55.0663 212M3.01437 3.00554L54.9059 23.3754M55.0663 212L54.9059 23.3754" stroke="#9E0238" stroke-width="4.49742" stroke-linejoin="bevel"/>
<rect width="583.155" height="184.591" transform="matrix(1 0 -6.38597e-05 1 57.2354 26.1641)" fill="#F28DB1"/>
<path d="M4.71681 191.76L3.01336 2.99968L54.6497 23.3695L54.8093 211.994L4.71681 191.76Z" fill="#CB3E6F" stroke="#9E0238" stroke-width="4.49742" stroke-linejoin="bevel"/>
<path d="M127.909 135.42C127.429 135.74 126.569 136.18 125.329 136.74C124.129 137.26 122.669 137.72 120.949 138.12C119.269 138.56 117.429 138.78 115.429 138.78C113.149 138.78 110.769 138.44 108.289 137.76C105.849 137.08 103.569 135.96 101.449 134.4C99.3289 132.84 97.6089 130.74 96.2889 128.1C94.9689 125.46 94.3089 122.18 94.3089 118.26C94.3089 115.1 94.7489 112.06 95.6289 109.14C96.5089 106.18 97.8689 103.54 99.7089 101.22C101.589 98.86 103.969 97 106.849 95.64C109.729 94.24 113.149 93.54 117.109 93.54C120.429 93.54 123.309 94.06 125.749 95.1C128.189 96.1 130.129 97.14 131.569 98.22L127.129 106.2C126.249 105.4 125.029 104.54 123.469 103.62C121.909 102.7 120.069 102.16 117.949 102C115.069 101.8 112.529 102.36 110.329 103.68C108.169 104.96 106.469 106.8 105.229 109.2C104.029 111.6 103.429 114.4 103.429 117.6C103.429 120.08 103.909 122.28 104.869 124.2C105.869 126.12 107.289 127.62 109.129 128.7C111.009 129.78 113.229 130.32 115.789 130.32C117.509 130.32 118.989 130.14 120.229 129.78C121.469 129.38 122.509 128.96 123.349 128.52C124.189 128.04 124.829 127.66 125.269 127.38L127.909 135.42ZM144.481 139.26C142.121 139.26 140.221 138.54 138.781 137.1C137.381 135.62 136.781 133.72 136.981 131.4L139.381 111.78H147.781L145.741 128.28C145.701 129.44 145.881 130.38 146.281 131.1C146.721 131.78 147.561 132.12 148.801 132.12C150.681 132.12 152.281 131.22 153.601 129.42C154.921 127.58 155.741 125.26 156.061 122.46L157.381 111.78H165.781L162.541 138H154.921L154.861 133.98C153.741 135.58 152.301 136.86 150.541 137.82C148.781 138.78 146.761 139.26 144.481 139.26ZM183.18 111.78L182.94 117.6C183.9 116.04 185.04 114.74 186.36 113.7C187.72 112.62 189.08 111.82 190.44 111.3C191.84 110.74 193.02 110.46 193.98 110.46L192.54 118.86C190.62 118.62 188.9 118.94 187.38 119.82C185.86 120.7 184.64 121.86 183.72 123.3C182.8 124.74 182.24 126.22 182.04 127.74L180.78 138H172.44L175.62 111.78H183.18ZM209.223 111.78L208.983 117.6C209.943 116.04 211.083 114.74 212.403 113.7C213.763 112.62 215.123 111.82 216.483 111.3C217.883 110.74 219.063 110.46 220.023 110.46L218.583 118.86C216.663 118.62 214.943 118.94 213.423 119.82C211.903 120.7 210.683 121.86 209.763 123.3C208.843 124.74 208.283 126.22 208.083 127.74L206.823 138H198.483L201.663 111.78H209.223ZM238.175 131.58C238.975 131.58 239.735 131.44 240.455 131.16C241.215 130.88 241.975 130.54 242.735 130.14L245.675 136.62C244.355 137.26 242.955 137.76 241.475 138.12C240.035 138.48 238.635 138.66 237.275 138.66C232.955 138.66 229.475 137.56 226.835 135.36C224.235 133.12 222.935 129.7 222.935 125.1C222.935 123.54 223.215 121.92 223.775 120.24C224.375 118.56 225.275 117 226.475 115.56C227.715 114.08 229.315 112.88 231.275 111.96C233.275 111.04 235.675 110.58 238.475 110.58C239.995 110.58 241.495 110.78 242.975 111.18C244.495 111.54 245.875 112.22 247.115 113.22C248.395 114.18 249.475 115.54 250.355 117.3C251.275 119.06 251.915 121.34 252.275 124.14L232.655 129C233.335 130 234.195 130.68 235.235 131.04C236.275 131.4 237.255 131.58 238.175 131.58ZM231.335 124.14V124.32L243.275 121.2C242.955 119.88 242.315 118.88 241.355 118.2C240.435 117.48 239.375 117.12 238.175 117.12C236.535 117.12 235.215 117.46 234.215 118.14C233.215 118.82 232.475 119.7 231.995 120.78C231.555 121.86 231.335 122.98 231.335 124.14ZM268.637 111.78L268.757 115.68C269.877 114.12 271.357 112.88 273.197 111.96C275.037 111 277.117 110.52 279.437 110.52C281.917 110.52 283.877 111.26 285.317 112.74C286.797 114.18 287.437 116.06 287.237 118.38L284.837 138H276.437L278.477 121.5C278.557 120.34 278.337 119.42 277.817 118.74C277.337 118.02 276.417 117.66 275.057 117.66C273.097 117.66 271.437 118.58 270.077 120.42C268.717 122.22 267.877 124.52 267.557 127.32L266.237 138H257.837L261.017 111.78H268.637ZM301.5 100.26H309.9L308.52 111.66H314.88L314.1 118.2H307.74L305.34 138H296.94L299.34 118.2H295.26L296.04 111.66H300.12L301.5 100.26ZM348.202 138H339.802L345.442 92.04H345.502L364.042 123.84L390.802 92.04H390.922L385.282 138H376.582L379.162 116.94L362.242 137.4H362.122L350.602 118.2L348.202 138ZM411.636 131.58C412.436 131.58 413.196 131.44 413.916 131.16C414.676 130.88 415.436 130.54 416.196 130.14L419.136 136.62C417.816 137.26 416.416 137.76 414.936 138.12C413.496 138.48 412.096 138.66 410.736 138.66C406.416 138.66 402.936 137.56 400.296 135.36C397.696 133.12 396.396 129.7 396.396 125.1C396.396 123.54 396.676 121.92 397.236 120.24C397.836 118.56 398.736 117 399.936 115.56C401.176 114.08 402.776 112.88 404.736 111.96C406.736 111.04 409.136 110.58 411.936 110.58C413.456 110.58 414.956 110.78 416.436 111.18C417.956 111.54 419.336 112.22 420.576 113.22C421.856 114.18 422.936 115.54 423.816 117.3C424.736 119.06 425.376 121.34 425.736 124.14L406.116 129C406.796 130 407.656 130.68 408.696 131.04C409.736 131.4 410.716 131.58 411.636 131.58ZM404.796 124.14V124.32L416.736 121.2C416.416 119.88 415.776 118.88 414.816 118.2C413.896 117.48 412.836 117.12 411.636 117.12C409.996 117.12 408.676 117.46 407.676 118.14C406.676 118.82 405.936 119.7 405.456 120.78C405.016 121.86 404.796 122.98 404.796 124.14ZM442.098 111.78L442.218 115.92C443.418 114.2 444.858 112.86 446.538 111.9C448.258 110.94 450.198 110.46 452.358 110.46C454.478 110.46 456.178 110.88 457.458 111.72C458.778 112.52 459.538 113.82 459.738 115.62C461.018 114.14 462.478 112.92 464.118 111.96C465.798 110.96 467.498 110.46 469.218 110.46C471.818 110.46 473.798 111.2 475.158 112.68C476.518 114.12 477.078 116 476.838 118.32L474.438 138H466.098L468.078 121.8C468.158 120.64 468.078 119.7 467.838 118.98C467.638 118.22 466.958 117.8 465.798 117.72C464.438 117.72 463.238 118.2 462.198 119.16C461.158 120.08 460.318 121.28 459.678 122.76C459.038 124.2 458.618 125.7 458.418 127.26L457.098 138H448.698L450.678 121.8C450.758 120.64 450.658 119.7 450.378 118.98C450.098 118.22 449.378 117.8 448.218 117.72C446.898 117.72 445.718 118.2 444.678 119.16C443.678 120.08 442.858 121.26 442.218 122.7C441.618 124.14 441.218 125.62 441.018 127.14L439.698 138H431.298L434.478 111.78H442.098ZM501.453 138.72C499.453 138.72 497.773 138.42 496.413 137.82C495.093 137.22 493.973 136.4 493.053 135.36L492.693 138H484.293L490.113 90.66H498.453L495.693 113.58C496.693 112.7 497.973 111.96 499.533 111.36C501.093 110.76 502.833 110.46 504.753 110.46C506.873 110.46 508.853 110.94 510.693 111.9C512.573 112.82 514.073 114.26 515.193 116.22C516.353 118.18 516.933 120.68 516.933 123.72C516.933 126.32 516.273 128.78 514.953 131.1C513.633 133.38 511.813 135.22 509.493 136.62C507.173 138.02 504.493 138.72 501.453 138.72ZM500.433 131.64C502.273 131.64 503.773 131.24 504.933 130.44C506.093 129.64 506.953 128.66 507.513 127.5C508.073 126.34 508.353 125.26 508.353 124.26C508.353 121.9 507.733 120.12 506.493 118.92C505.293 117.68 503.693 117.06 501.693 117.06C500.093 117.06 498.713 117.44 497.553 118.2C496.393 118.96 495.473 119.98 494.793 121.26L494.013 127.32C494.573 128.64 495.373 129.7 496.413 130.5C497.453 131.26 498.793 131.64 500.433 131.64ZM537.932 131.58C538.732 131.58 539.492 131.44 540.212 131.16C540.972 130.88 541.732 130.54 542.492 130.14L545.432 136.62C544.112 137.26 542.712 137.76 541.232 138.12C539.792 138.48 538.392 138.66 537.032 138.66C532.712 138.66 529.232 137.56 526.592 135.36C523.992 133.12 522.692 129.7 522.692 125.1C522.692 123.54 522.972 121.92 523.532 120.24C524.132 118.56 525.032 117 526.232 115.56C527.472 114.08 529.072 112.88 531.032 111.96C533.032 111.04 535.432 110.58 538.232 110.58C539.752 110.58 541.252 110.78 542.732 111.18C544.252 111.54 545.632 112.22 546.872 113.22C548.152 114.18 549.232 115.54 550.112 117.3C551.032 119.06 551.672 121.34 552.032 124.14L532.412 129C533.092 130 533.952 130.68 534.992 131.04C536.032 131.4 537.012 131.58 537.932 131.58ZM531.092 124.14V124.32L543.032 121.2C542.712 119.88 542.072 118.88 541.112 118.2C540.192 117.48 539.132 117.12 537.932 117.12C536.292 117.12 534.972 117.46 533.972 118.14C532.972 118.82 532.232 119.7 531.752 120.78C531.312 121.86 531.092 122.98 531.092 124.14ZM568.333 111.78L568.093 117.6C569.053 116.04 570.193 114.74 571.513 113.7C572.873 112.62 574.233 111.82 575.593 111.3C576.993 110.74 578.173 110.46 579.133 110.46L577.693 118.86C575.773 118.62 574.053 118.94 572.533 119.82C571.013 120.7 569.793 121.86 568.873 123.3C567.953 124.74 567.393 126.22 567.193 127.74L565.933 138H557.593L560.773 111.78H568.333ZM592.817 138.54C592.097 138.54 591.077 138.42 589.757 138.18C588.437 137.98 587.037 137.52 585.557 136.8C584.117 136.08 582.837 134.98 581.717 133.5L585.737 129.12C586.817 130.32 587.797 131.18 588.677 131.7C589.557 132.22 590.337 132.54 591.017 132.66C591.737 132.74 592.317 132.78 592.757 132.78C593.997 132.78 594.797 132.52 595.157 132C595.517 131.48 595.697 131 595.697 130.56C595.697 129.64 595.157 128.98 594.077 128.58C593.037 128.14 591.877 127.68 590.597 127.2C588.517 126.4 587.017 125.34 586.097 124.02C585.217 122.7 584.777 121.26 584.777 119.7C584.777 118.9 584.917 118 585.197 117C585.517 115.96 586.037 114.96 586.757 114C587.517 113.04 588.557 112.24 589.877 111.6C591.237 110.96 592.977 110.64 595.097 110.64C596.897 110.64 598.717 110.86 600.557 111.3C602.397 111.74 604.117 112.66 605.717 114.06L601.937 118.8C600.217 117.08 598.377 116.22 596.417 116.22C595.297 116.22 594.497 116.46 594.017 116.94C593.577 117.42 593.357 117.96 593.357 118.56C593.357 119.2 593.657 119.72 594.257 120.12C594.857 120.52 595.577 120.86 596.417 121.14C597.297 121.42 598.157 121.74 598.997 122.1C600.797 122.86 602.177 123.86 603.137 125.1C604.097 126.34 604.457 127.94 604.217 129.9C604.057 131.46 603.517 132.9 602.597 134.22C601.677 135.54 600.397 136.6 598.757 137.4C597.157 138.16 595.177 138.54 592.817 138.54Z" fill="#680024"/>
</svg>
