<svg width="5829" height="501" viewBox="0 0 5829 501" fill="none" xmlns="http://www.w3.org/2000/svg">
<path d="M1971.65 184.428C1952.33 235.697 1928.7 327.98 1911.52 379.249C1896.48 418.213 1883.6 448.974 1866.42 465.38C1853.53 477.684 1823.46 500.242 1786.95 500.242C1754.74 500.242 1735.41 483.836 1735.41 465.38C1735.41 451.025 1750.44 438.72 1763.33 438.72C1771.92 438.72 1776.21 442.822 1780.51 448.974C1791.25 467.43 1804.13 477.684 1812.72 477.684C1821.32 477.684 1829.91 469.481 1840.64 434.619C1859.97 373.096 1885.75 274.661 1915.81 184.428H1866.42C1859.97 178.276 1864.27 163.921 1872.86 161.87H1922.26C1935.14 122.906 1948.03 88.0432 1969.51 57.2821C1997.43 20.3687 2033.94 -2.18945 2074.74 -2.18945C2106.96 -2.18945 2128.44 16.2672 2128.44 36.7746C2128.44 53.1806 2111.26 65.485 2098.37 65.485C2089.78 65.485 2087.63 63.4343 2085.48 55.2313C2081.19 24.4702 2068.3 14.2165 2055.42 14.2165C2046.82 14.2165 2036.09 20.3687 2021.05 47.0284C2001.72 79.8402 1990.98 118.804 1978.1 159.819H2044.68C2048.97 165.971 2046.82 178.276 2038.23 182.377H1971.65V184.428Z" fill="white"/>
<path d="M2055.41 188.519C2087.62 161.86 2115.54 153.657 2141.31 153.657C2190.71 153.657 2210.04 184.418 2210.04 223.382C2210.04 254.143 2192.86 301.31 2154.2 334.122C2121.98 362.832 2089.77 368.985 2066.14 368.985C2018.89 368.985 1995.27 340.274 1997.42 301.31C1999.57 266.448 2023.19 219.28 2055.41 188.519ZM2111.25 321.818C2130.58 295.158 2158.5 233.636 2158.5 200.824C2158.5 186.469 2156.35 174.164 2141.31 174.164C2130.58 174.164 2119.84 180.316 2104.8 196.722C2079.03 227.483 2048.96 289.006 2048.96 325.919C2048.96 342.325 2055.41 352.579 2068.29 352.579C2083.33 352.579 2096.21 344.376 2111.25 321.818Z" fill="white"/>
<path d="M2328.17 209.044L2308.84 262.363H2313.14C2330.32 233.653 2349.65 204.943 2362.53 188.537C2379.72 168.029 2394.75 155.725 2411.93 155.725C2429.11 155.725 2437.7 170.08 2437.7 184.435C2437.7 200.841 2424.82 225.45 2407.64 225.45C2401.19 225.45 2399.04 219.298 2396.9 211.095C2394.75 200.841 2390.45 194.689 2386.16 194.689C2379.72 194.689 2366.83 204.943 2347.5 233.653C2326.02 264.414 2302.4 313.632 2280.92 362.85C2278.77 369.002 2270.18 371.053 2261.59 371.053C2250.85 371.053 2231.52 369.002 2235.82 354.647C2248.71 321.835 2276.63 250.059 2291.66 202.892C2293.81 194.689 2293.81 190.587 2287.36 190.587C2274.48 190.587 2257.3 204.943 2244.41 219.298C2237.97 219.298 2233.67 215.196 2235.82 209.044C2250.85 186.486 2278.77 155.725 2313.14 155.725C2341.06 155.725 2336.76 184.435 2328.17 209.044Z" fill="white"/>
<path d="M2643.9 59.999H2710.48L2852.23 374.865H2777.06L2746.99 305.798H2607.39L2577.33 374.865H2504.3L2643.9 59.999ZM2719.07 244.856L2676.12 143.286L2633.17 244.856H2719.07Z" fill="white"/>
<path d="M2951.04 62.0105L3036.94 194.051L3122.85 62.0105H3200.17V374.845H3127.15V171.706L3034.8 305.778H3032.65L2940.3 173.737V376.877H2869.42V62.0105H2951.04Z" fill="white"/>
<path d="M3256.02 62.0105H3505.15V122.952H3329.04V185.926H3483.67V246.867H3329.04V311.872H3507.3V372.814H3256.02V62.0105Z" fill="white"/>
<path d="M3543.79 62.0105H3694.13C3737.09 62.0105 3769.3 72.1675 3790.78 94.5128C3810.11 112.795 3818.7 137.172 3818.7 165.612C3818.7 216.397 3790.78 246.867 3747.83 263.119L3829.44 374.845H3743.53L3672.66 275.307H3616.82V374.845H3543.79V62.0105ZM3689.84 214.365C3724.2 214.365 3745.68 196.083 3745.68 169.674C3745.68 141.235 3724.2 124.984 3687.69 124.984H3614.67V214.365H3689.84Z" fill="white"/>
<path d="M3861.66 62.0105H3934.68V374.845H3861.66V62.0105Z" fill="white"/>
<path d="M3973.32 220.461C3973.32 131.079 4044.2 57.9492 4145.14 57.9492C4207.42 57.9492 4243.93 78.2632 4276.15 106.703L4228.9 157.488C4203.13 135.142 4177.35 122.954 4145.14 122.954C4089.3 122.954 4048.49 167.645 4048.49 220.461C4048.49 273.277 4087.15 317.968 4145.14 317.968C4183.8 317.968 4205.27 303.748 4231.05 281.403L4278.3 326.093C4243.93 360.627 4207.42 380.941 4142.99 380.941C4046.34 380.941 3973.32 309.842 3973.32 220.461Z" fill="white"/>
<path d="M4422.21 59.9791H4488.79L4630.54 374.845H4555.37L4523.16 305.778H4383.55L4353.49 374.845H4280.46L4422.21 59.9791ZM4497.38 244.836L4454.43 143.266L4411.47 244.836H4497.38Z" fill="white"/>
<path d="M335.119 62.0103H579.957V122.952H405.993V185.925H558.48V246.867H405.993V311.872H582.105V372.814H335.119V62.0103Z" fill="white"/>
<path d="M605.717 330.154L648.672 281.401C678.739 303.746 708.807 319.997 745.318 319.997C775.386 319.997 792.568 309.841 792.568 291.558C792.568 273.275 781.829 265.15 728.137 250.93C663.705 234.679 620.751 218.428 620.751 155.454C620.751 98.5754 668.001 62.0103 734.58 62.0103C781.829 62.0103 822.636 76.2301 854.851 102.638L818.34 153.423C790.42 135.141 760.352 122.952 734.58 122.952C706.659 122.952 693.773 135.141 693.773 149.36C693.773 169.674 706.66 175.768 764.648 189.988C831.226 206.239 867.737 228.585 867.737 283.432C867.737 346.406 818.34 380.939 749.614 380.939C693.773 378.908 644.376 362.657 605.717 330.154Z" fill="white"/>
<path d="M908.576 62.0103H979.45V374.845H908.576V62.0103Z" fill="white"/>
<path d="M1028.82 220.461C1028.82 131.079 1099.69 57.9492 1198.48 57.9492C1256.47 57.9492 1292.98 72.169 1325.2 100.609L1280.1 153.425C1254.32 133.111 1232.85 120.922 1194.19 120.922C1142.64 120.922 1101.84 165.613 1101.84 218.429C1101.84 275.309 1142.64 317.968 1200.63 317.968C1226.4 317.968 1250.03 311.874 1267.21 299.685V254.995H1196.34V196.084H1338.09V332.188C1303.72 358.596 1258.62 380.941 1198.48 380.941C1099.69 380.941 1028.82 311.874 1028.82 220.461Z" fill="white"/>
<path d="M1389.65 62.0103H1456.23L1608.72 254.993V62.0103H1679.59V374.845H1619.45L1462.67 175.768V374.845H1391.8L1389.65 62.0103Z" fill="white"/>
<path d="M0.0776367 62.0469H126.792C229.882 62.0469 298.609 129.083 298.609 216.433C298.609 303.783 227.734 372.85 126.792 372.85H0.0776367V62.0469ZM126.792 313.94C184.78 313.94 225.587 275.343 225.587 220.496C225.587 165.648 186.928 127.052 126.792 127.052H70.9519V315.971H126.792V313.94Z" fill="white"/>
<path d="M4794 -7H4830.5V441H4794V-7Z" fill="white"/>
<path d="M5074.12 275.217L4958.4 58.728H5034.84L5107 203.908L5177.46 58.728H5253.89L5136.04 275.217V373H5074.12V275.217Z" fill="white"/>
<path d="M5331.11 378.124C5313.74 378.124 5297.94 374.708 5283.71 367.876C5269.76 360.759 5258.66 349.942 5250.4 335.424C5242.15 320.906 5238.02 302.403 5238.02 279.914C5238.02 258.849 5242.29 240.63 5250.83 225.258C5259.37 209.886 5270.61 198.072 5284.56 189.817C5298.51 181.277 5313.31 177.007 5328.97 177.007C5347.47 177.007 5361.42 179.996 5370.82 185.974C5380.5 191.952 5388.18 198.499 5393.88 205.616L5397.72 186.401H5453.23V373H5393.45V349.942C5390.6 352.789 5386.33 356.489 5380.64 361.044C5375.23 365.599 5368.4 369.584 5360.14 373C5351.89 376.416 5342.21 378.124 5331.11 378.124ZM5348.19 329.446C5368.97 329.446 5384.05 320.052 5393.45 301.264V255.575C5390.03 246.466 5384.05 239.207 5375.51 233.798C5367.26 228.389 5357.44 225.685 5346.05 225.685C5333.24 225.685 5322.14 230.524 5312.75 240.203C5303.35 249.597 5298.65 261.838 5298.65 276.925C5298.65 286.888 5300.93 295.855 5305.49 303.826C5310.04 311.797 5316.02 318.059 5323.42 322.614C5331.11 327.169 5339.36 329.446 5348.19 329.446Z" fill="white"/>
<path d="M5514.83 36.097H5574.61V373H5514.83V36.097Z" fill="white"/>
<path d="M5727.98 378.124C5705.2 378.124 5685.85 373.854 5669.9 365.314C5654.25 356.774 5642.29 344.96 5634.04 329.873C5625.78 314.786 5621.65 297.421 5621.65 277.779C5621.65 258.991 5626.49 242.053 5636.17 226.966C5645.85 211.879 5658.8 199.923 5675.03 191.098C5691.25 181.989 5709.33 177.434 5729.26 177.434C5756.02 177.434 5777.93 185.262 5795.01 200.919C5812.38 216.291 5823.62 238.637 5828.75 267.958L5692.11 311.512C5701.22 322.045 5713.6 327.311 5729.26 327.311C5735.8 327.311 5742.07 326.172 5748.04 323.895C5754.31 321.618 5760.43 318.629 5766.41 314.928L5792.88 359.336C5782.92 365.029 5772.1 369.584 5760.43 373C5749.04 376.416 5738.22 378.124 5727.98 378.124ZM5680.58 274.363C5680.58 275.786 5680.58 277.067 5680.58 278.206L5762.56 250.451C5760 243.334 5755.87 237.214 5750.18 232.09C5744.49 226.681 5735.95 223.977 5724.56 223.977C5711.18 223.977 5700.51 228.532 5692.53 237.641C5684.56 246.75 5680.58 258.991 5680.58 274.363Z" fill="white"/>
</svg>
